<?xml version="1.0" encoding="iso-8859-1"?>
<!-- Uploaded to: SVG Repo, www.svgrepo.com, Generator: SVG Repo Mixer Tools -->
<svg version="1.1" id="Layer_1" xmlns="http://www.w3.org/2000/svg"
	 viewBox="0 0 512.001 512.001" xml:space="preserve">
<path style="fill:#E4EAF8;" d="M67.875,379.992H16.568c-4.722,0-8.551-3.829-8.551-8.551v-222.33c0-4.722,3.829-8.551,8.551-8.551
	h51.307c4.722,0,8.551,3.829,8.551,8.551v222.33C76.426,376.163,72.597,379.992,67.875,379.992z"/>
<circle style="fill:#FFDC64;" cx="427.023" cy="208.969" r="76.96"/>
<circle style="fill:#FFF082;" cx="427.023" cy="208.969" r="42.756"/>
<path style="fill:#F0C087;" d="M392.818,208.969c14.168,0,25.653-11.485,25.653-25.653c0-14.168-11.485-25.653-25.653-25.653H76.426
	V362.89h169.571c13.891,0,26.344-10.402,27.07-24.275c0.775-14.795-10.992-27.032-25.618-27.032h32.753
	c13.891,0,26.344-10.402,27.07-24.275c0.775-14.795-10.992-27.032-25.618-27.032h111.165c14.168,0,25.653-11.485,25.653-25.653
	C418.472,220.454,406.987,208.969,392.818,208.969z"/>
<rect x="76.426" y="157.662" style="fill:#E6AF78;" width="25.653" height="205.228"/>
<path d="M42.179,337.685c-4.427,0-8.059,3.632-8.059,8.059c0,4.427,3.632,8.059,8.059,8.059s8.059-3.632,8.059-8.059
	C50.238,341.318,46.606,337.685,42.179,337.685z"/>
<path d="M427.023,123.992c-22.816,0-44.725,9.315-60.696,25.653H84.443v-0.534c0-9.136-7.432-16.568-16.568-16.568H16.568
	C7.432,132.543,0,139.975,0,149.111v222.33c0,9.136,7.432,16.568,16.568,16.568h51.307c9.136,0,16.568-7.432,16.568-16.568v-0.534
	h161.555c18.732,0,34.139-14,35.075-31.872c0.365-6.966-1.36-13.67-4.923-19.435h4.053c18.732,0,34.139-14,35.075-31.872
	c0.365-6.966-1.36-13.67-4.923-19.435h55.975c15.971,16.338,37.879,25.653,60.696,25.653c46.856,0,84.977-38.121,84.977-84.977
	S473.879,123.992,427.023,123.992z M68.409,371.441c0,0.295-0.239,0.534-0.534,0.534H16.568c-0.295,0-0.534-0.239-0.534-0.534
	v-222.33c0-0.295,0.239-0.534,0.534-0.534h51.307c0.295,0,0.534,0.239,0.534,0.534V371.441z M281.653,252.259
	c-4.427,0-8.017,3.589-8.017,8.017c0,4.427,3.589,8.017,8.017,8.017c4.886,0,9.431,1.953,12.797,5.499
	c3.362,3.542,5.072,8.194,4.815,13.097c-0.482,9.196-9.033,16.677-19.064,16.677h-32.753c-4.427,0-8.017,3.589-8.017,8.017
	s3.589,8.017,8.017,8.017c4.886,0,9.431,1.953,12.797,5.499c3.362,3.542,5.072,8.194,4.815,13.097
	c-0.482,9.196-9.033,16.677-19.064,16.677H84.443V165.679h308.376c9.725,0,17.637,7.912,17.637,17.637
	c0,9.725-7.912,17.637-17.637,17.637H273.102c-4.427,0-8.017,3.589-8.017,8.017s3.589,8.017,8.017,8.017h119.716
	c9.725,0,17.637,7.912,17.637,17.637c0,9.725-7.912,17.637-17.637,17.637H281.653z M414.604,208.969
	c7.267-6.18,11.885-15.388,11.885-25.653c0-3.119-0.435-6.138-1.233-9.006c0.593-0.038,1.186-0.079,1.768-0.079
	c19.155,0,34.739,15.584,34.739,34.739s-15.584,34.739-34.739,34.739c-0.58,0-1.175-0.042-1.768-0.079
	c0.797-2.869,1.233-5.886,1.233-9.007C426.489,224.357,421.871,215.15,414.604,208.969z M427.023,277.913
	c-12.388,0-24.449-3.398-34.962-9.62h0.758c9.242,0,17.623-3.744,23.713-9.793c3.601,0.826,7.068,1.242,10.491,1.242
	c27.995,0,50.772-22.777,50.772-50.772s-22.777-50.772-50.772-50.772c-3.424,0-6.89,0.415-10.491,1.242
	c-6.091-6.049-14.472-9.793-23.713-9.793h-0.758c10.514-6.222,22.575-9.62,34.962-9.62c38.015,0,68.944,30.928,68.944,68.944
	S465.038,277.913,427.023,277.913z"/>
</svg>
