<svg xmlns="http://www.w3.org/2000/svg" version="1.1" viewBox="0.00 0.00 370.00 89.00">
    <g stroke-width="2.00" fill="none" stroke-linecap="butt">
        <path stroke="#dff4fc" vector-effect="non-scaling-stroke" d="
  M 29.19 17.46
  Q 27.55 17.81 25.95 18.29
  Q 25.74 18.36 25.78 18.58
  L 25.78 18.59
  Q 25.83 18.81 26.05 18.78
  Q 27.72 18.56 29.30 17.97"
        />
        <path stroke="#8ec1d6" vector-effect="non-scaling-stroke" d="
  M 29.30 17.97
  L 36.03 19.57"
        />
        <path stroke="#dff4fc" vector-effect="non-scaling-stroke" d="
  M 36.03 19.57
  L 38.90 20.93"
        />
        <path stroke="#8ec1d6" vector-effect="non-scaling-stroke" d="
  M 38.90 20.93
  Q 41.65 22.20 44.42 22.13
  A 0.04 0.04 0.0 0 1 44.45 22.20
  Q 44.36 22.32 44.41 22.47
  Q 44.61 23.13 43.98 22.88
  Q 43.76 22.79 43.57 22.88
  Q 42.57 23.33 43.59 23.78
  Q 43.87 23.90 44.46 23.87"
        />
        <path stroke="#dff4fc" vector-effect="non-scaling-stroke" d="
  M 44.46 23.87
  Q 44.96 24.30 45.18 23.88"
        />
        <path stroke="#8ec1d6" vector-effect="non-scaling-stroke" d="
  M 45.18 23.88
  Q 45.18 24.30 45.76 24.54
  Q 53.65 27.83 61.53 31.10
  Q 62.04 31.31 62.02 30.76
  L 61.92 27.75"
        />
        <path stroke="#dff4fc" vector-effect="non-scaling-stroke" d="
  M 61.92 27.75
  Q 61.41 27.31 61.74 26.61"
        />
        <path stroke="#8ec1d6" vector-effect="non-scaling-stroke" d="
  M 61.74 26.61
  L 60.84 23.09"
        />
        <path stroke="#dff4fc" vector-effect="non-scaling-stroke" d="
  M 60.84 23.09
  Q 60.46 22.46 60.66 22.02"
        />
        <path stroke="#8ec1d6" vector-effect="non-scaling-stroke" d="
  M 60.66 22.02
  L 59.88 19.06"
        />
        <path stroke="#dff4fc" vector-effect="non-scaling-stroke" d="
  M 59.88 19.06
  Q 59.62 17.94 59.10 17.68"
        />
        <path stroke="#8ec1d6" vector-effect="non-scaling-stroke" d="
  M 59.10 17.68
  Q 58.42 15.75 57.73 14.94"
        />
        <path stroke="#dff4fc" vector-effect="non-scaling-stroke" d="
  M 57.73 14.94
  L 57.28 13.80"
        />
        <path stroke="#8ec1d6" vector-effect="non-scaling-stroke" d="
  M 57.28 13.80
  Q 56.67 12.12 55.39 10.96
  Q 55.02 10.62 54.54 10.75
  L 29.19 17.46"
        />
        <path stroke="#6eb5d3" vector-effect="non-scaling-stroke" d="
  M 57.28 13.80
  Q 46.84 15.25 36.47 16.91
  C 35.47 17.07 34.45 16.74 33.51 17.20
  Q 32.79 17.56 33.57 17.75
  C 36.87 18.55 39.52 17.11 42.77 16.79
  C 47.78 16.29 52.65 15.06 57.73 14.94"
        />
        <path stroke="#6eb5d3" vector-effect="non-scaling-stroke" d="
  M 59.10 17.68
  L 38.93 18.21
  Q 38.69 18.21 38.69 18.46
  L 38.69 18.77
  Q 38.69 18.87 38.79 18.87
  L 59.88 19.06"
        />
        <path stroke="#6eb5d3" vector-effect="non-scaling-stroke" d="
  M 60.66 22.02
  L 36.03 19.57"
        />
        <path stroke="#6eb5d3" vector-effect="non-scaling-stroke" d="
  M 29.30 17.97
  Q 29.03 18.14 29.19 17.46"
        />
        <path stroke="#6eb5d3" vector-effect="non-scaling-stroke" d="
  M 60.84 23.09
  L 38.90 20.93"
        />
        <path stroke="#6eb5d3" vector-effect="non-scaling-stroke" d="
  M 61.74 26.61
  L 45.01 22.97
  Q 44.73 22.91 44.82 23.19
  L 44.93 23.52
  Q 45.02 23.80 44.74 23.87
  Q 44.61 23.91 44.46 23.87"
        />
        <path stroke="#6eb5d3" vector-effect="non-scaling-stroke" d="
  M 61.92 27.75
  L 45.18 23.88"
        />
        <path stroke="#8db1c6" vector-effect="non-scaling-stroke" d="
  M 19.32 20.72
  Q 17.67 31.09 16.08 40.65
  Q 15.84 42.11 16.66 43.39
  Q 16.98 43.88 17.30 43.39
  Q 17.86 42.51 17.30 41.74
  A 1.23 1.20 -55.6 0 1 17.12 40.70
  L 23.12 20.12
  A 0.27 0.27 0.0 0 0 22.80 19.78
  L 19.69 20.35
  Q 19.37 20.40 19.32 20.72"
        />
        <path stroke="#8db1c6" vector-effect="non-scaling-stroke" d="
  M 19.66 38.84
  Q 20.27 38.59 20.18 37.91
  Q 20.11 37.33 20.35 36.79
  L 27.62 20.23
  A 0.19 0.18 -76.1 0 0 27.47 19.97
  L 24.28 19.74
  Q 24.07 19.72 24.01 19.93
  Q 21.21 29.03 18.84 37.89
  C 18.51 39.12 17.69 40.07 18.35 41.42
  Q 18.68 42.09 18.94 41.39
  Q 19.25 40.51 19.21 39.54
  A 0.73 0.72 77.9 0 1 19.66 38.84"
        />
        <path stroke="#8ec1d6" vector-effect="non-scaling-stroke" d="
  M 21.12 38.19
  A 0.19 0.19 0.0 0 0 21.37 38.12
  L 32.29 20.45
  A 0.19 0.19 0.0 0 0 32.14 20.16
  L 28.69 19.88
  A 0.19 0.19 0.0 0 0 28.50 19.99
  L 20.73 37.79
  A 0.19 0.19 0.0 0 0 20.82 38.03
  L 21.12 38.19"
        />
        <path stroke="#8db1c6" vector-effect="non-scaling-stroke" d="
  M 14.99 45.77
  Q 15.86 45.13 15.47 44.20
  Q 14.95 42.98 15.15 41.77
  Q 16.88 31.07 18.63 20.86
  Q 18.72 20.33 18.20 20.47
  L 15.47 21.20
  Q 14.88 21.36 14.85 21.97
  Q 14.10 36.04 13.47 48.75
  Q 13.44 49.28 13.65 50.78
  Q 13.66 50.79 13.67 50.79
  L 13.91 50.75
  Q 13.99 50.74 13.99 50.67
  Q 13.98 48.18 14.58 46.33
  Q 14.70 45.98 14.99 45.77"
        />
        <path stroke="#8ec1d6" vector-effect="non-scaling-stroke" d="
  M 33.02 20.72
  L 23.25 36.53
  Q 22.67 37.47 23.57 36.83
  C 25.10 35.74 25.67 34.28 26.81 32.98
  Q 31.65 27.49 36.67 21.77
  A 0.17 0.17 0.0 0 0 36.59 21.50
  Q 35.01 20.99 33.45 20.55
  Q 33.17 20.47 33.02 20.72"
        />
        <path stroke="#8ec1d6" vector-effect="non-scaling-stroke" d="
  M 64.26 25.90
  Q 70.22 37.51 75.55 47.76
  A 0.44 0.43 49.2 0 0 76.29 47.82
  L 77.76 45.78
  Q 78.14 45.26 77.79 44.72
  L 62.68 21.59
  Q 62.35 21.10 62.32 21.69
  Q 62.30 21.97 62.40 22.19
  Q 63.32 24.07 64.26 25.90"
        />
        <path stroke="#8ec1d6" vector-effect="non-scaling-stroke" d="
  M 37.72 21.87
  A 0.16 0.16 0.0 0 0 37.53 21.91
  L 26.65 34.12
  A 0.16 0.16 0.0 0 0 26.65 34.34
  L 26.86 34.55
  A 0.16 0.16 0.0 0 0 27.07 34.57
  L 40.95 23.59
  A 0.16 0.16 0.0 0 0 40.92 23.32
  L 37.72 21.87"
        />
        <path stroke="#8ec1d6" vector-effect="non-scaling-stroke" d="
  M 61.53 32.01
  C 56.68 29.86 51.53 27.64 46.37 25.64
  Q 46.23 25.58 46.12 25.68
  Q 46.08 25.72 46.08 25.77
  Q 46.07 25.96 46.23 26.06
  Q 53.59 30.66 60.78 35.53
  Q 61.45 35.97 61.62 35.19
  L 62.09 33.11
  Q 62.26 32.33 61.53 32.01"
        />
        <path stroke="#dff4fc" vector-effect="non-scaling-stroke" d="
  M 62.79 38.29
  L 62.53 38.99"
        />
        <path stroke="#8db1c6" vector-effect="non-scaling-stroke" d="
  M 62.53 38.99
  Q 62.01 39.79 61.90 40.86
  Q 61.04 49.15 60.52 57.52
  Q 60.49 58.03 61.00 57.95
  Q 63.12 57.58 63.96 56.10"
        />
        <path stroke="#dff4fc" vector-effect="non-scaling-stroke" d="
  M 63.96 56.10
  Q 64.47 55.63 64.55 56.09"
        />
        <path stroke="#8ec1d6" vector-effect="non-scaling-stroke" d="
  M 64.55 56.09
  Q 66.47 56.14 67.66 54.68
  Q 67.95 54.34 67.85 53.90
  L 64.63 38.92
  Q 64.53 38.45 64.25 38.07
  Q 63.29 36.77 63.93 35.27
  Q 64.31 34.38 64.51 35.32
  Q 66.53 44.78 68.70 53.88
  A 0.23 0.23 0.0 0 0 69.06 54.02
  L 71.55 52.21
  Q 71.81 52.02 71.70 51.72
  L 64.73 32.58
  Q 64.66 32.41 64.84 32.34
  L 65.10 32.25
  Q 65.34 32.16 65.43 32.40
  L 72.11 50.76
  Q 72.45 51.68 73.15 50.99
  L 74.59 49.60
  A 1.23 1.22 54.3 0 0 74.82 48.16
  Q 70.38 39.48 65.87 30.14
  Q 65.78 29.96 65.58 29.92
  Q 65.37 29.88 65.23 29.65
  Q 65.17 29.55 65.13 29.43
  Q 64.57 27.67 63.80 26.13
  Q 63.74 26.02 63.61 26.01
  Q 63.56 26.01 63.51 26.03
  Q 63.28 26.15 63.36 26.40
  C 63.94 28.31 63.38 29.94 63.51 31.88
  Q 63.70 34.54 62.56 37.36
  Q 62.42 37.71 62.79 38.29"
        />
        <path stroke="#6eb5d3" vector-effect="non-scaling-stroke" d="
  M 64.55 56.09
  Q 64.76 55.03 64.65 54.13
  Q 63.76 46.78 63.70 39.39
  Q 63.70 38.93 63.47 38.69
  Q 63.20 38.39 62.79 38.29"
        />
        <path stroke="#6da6c3" vector-effect="non-scaling-stroke" d="
  M 63.96 56.10
  L 62.96 39.08
  Q 62.95 38.89 62.76 38.88
  Q 62.65 38.88 62.53 38.99"
        />
        <path stroke="#bcbcbc" vector-effect="non-scaling-stroke" d="
  M 104.0706 33.8743
  A 0.51 0.51 0.0 0 0 103.5615 33.3634
  L 99.6615 33.3566
  A 0.51 0.51 0.0 0 0 99.1506 33.8657
  L 99.1094 57.4857
  A 0.51 0.51 0.0 0 0 99.6185 57.9966
  L 103.5185 58.0034
  A 0.51 0.51 0.0 0 0 104.0294 57.4943
  L 104.0706 33.8743"
        />
        <path stroke="#bcbcbc" vector-effect="non-scaling-stroke" d="
  M 130.9434 38.0270
  A 4.72 4.72 0.0 0 0 126.2069 33.3235
  L 110.9870 33.3766
  A 4.72 4.72 0.0 0 0 106.2835 38.1131
  L 106.3366 53.3330
  A 4.72 4.72 0.0 0 0 111.0731 58.0365
  L 126.2930 57.9834
  A 4.72 4.72 0.0 0 0 130.9965 53.2469
  L 130.9434 38.0270"
        />
        <path stroke="#bcbcbc" vector-effect="non-scaling-stroke" d="
  M 138.87 38.93
  Q 138.87 38.23 139.57 38.23
  L 152.80 38.26
  A 0.75 0.74 81.5 0 1 153.51 38.79
  L 153.79 39.70
  Q 153.96 40.25 154.52 40.34
  Q 156.24 40.62 157.83 40.26
  A 1.12 1.11 -3.9 0 0 158.70 39.27
  C 159.07 35.18 156.68 33.40 152.71 33.34
  Q 146.96 33.27 141.46 33.33
  C 139.31 33.35 137.02 33.30 135.46 34.76
  C 133.39 36.70 133.95 41.26 134.13 43.86
  Q 134.41 47.86 138.51 47.99
  Q 145.35 48.21 152.80 48.03
  A 0.93 0.93 0.0 0 1 153.75 48.96
  L 153.75 52.02
  Q 153.75 53.05 152.73 53.04
  L 140.00 52.94
  A 0.99 0.99 0.0 0 1 139.15 52.46
  Q 137.81 50.32 134.57 51.09
  Q 134.15 51.19 134.10 51.62
  Q 133.32 58.12 139.55 58.00
  Q 145.93 57.88 153.38 58.02
  C 158.13 58.12 158.73 54.55 158.79 50.82
  C 158.84 47.21 158.30 43.38 153.70 43.30
  Q 146.37 43.16 139.55 43.30
  Q 138.86 43.31 138.86 42.62
  L 138.87 38.93"
        />
        <path stroke="#bcbcbc" vector-effect="non-scaling-stroke" d="
  M 167.55 38.25
  L 186.01 38.25
  Q 186.52 38.25 186.52 37.74
  L 186.50 34.01
  A 0.66 0.66 0.0 0 0 185.85 33.35
  Q 176.53 33.29 167.13 33.36
  Q 162.05 33.41 161.97 38.44
  Q 161.86 44.99 161.95 52.94
  Q 162.01 57.96 167.07 57.98
  Q 176.11 58.01 185.76 57.99
  A 0.72 0.72 0.0 0 0 186.48 57.28
  L 186.51 53.72
  Q 186.51 53.17 185.97 53.16
  L 167.28 53.03
  A 0.49 0.49 0.0 0 1 166.79 52.53
  L 166.84 38.95
  Q 166.84 38.25 167.55 38.25"
        />
        <path stroke="#bcbcbc" vector-effect="non-scaling-stroke" d="
  M 194.99 49.75
  L 200.91 49.75
  A 1.87 1.86 70.0 0 1 202.34 50.42
  L 207.49 56.67
  A 3.77 3.77 0.0 0 0 210.42 58.04
  L 213.18 58.01
  Q 214.88 58.00 213.93 56.60
  Q 211.85 53.54 209.16 50.69
  Q 208.39 49.86 209.50 49.70
  Q 213.82 49.07 213.98 44.86
  Q 214.11 41.21 213.88 37.84
  Q 213.58 33.55 209.13 33.48
  Q 199.10 33.34 190.28 33.36
  Q 189.30 33.36 189.31 34.34
  L 189.32 57.42
  Q 189.32 58.01 189.91 58.01
  L 193.77 58.00
  Q 194.29 58.00 194.29 57.48
  L 194.24 50.51
  Q 194.23 49.75 194.99 49.75"
        />
        <path stroke="#bcbcbc" vector-effect="non-scaling-stroke" d="
  M 222.90 49.87
  Q 229.36 49.71 236.45 49.73
  Q 241.28 49.74 241.76 45.01
  Q 242.19 40.74 241.66 37.22
  Q 241.09 33.42 236.94 33.36
  Q 228.01 33.24 217.94 33.36
  Q 217.08 33.37 217.08 34.23
  L 217.15 57.32
  Q 217.15 57.98 217.82 57.99
  L 221.36 58.03
  Q 222.01 58.03 222.01 57.38
  L 222.03 50.76
  A 0.89 0.89 0.0 0 1 222.90 49.87"
        />
        <path stroke="#bcbcbc" vector-effect="non-scaling-stroke" d="
  M 251.84 38.34
  A 0.68 0.68 0.0 0 1 252.52 39.02
  L 252.55 57.34
  A 0.68 0.68 0.0 0 0 253.23 58.02
  L 256.85 57.99
  A 0.68 0.68 0.0 0 0 257.53 57.31
  L 257.51 38.92
  A 0.68 0.68 0.0 0 1 258.20 38.24
  L 266.79 38.34
  A 0.68 0.68 0.0 0 0 267.48 37.65
  L 267.41 33.99
  A 0.68 0.68 0.0 0 0 266.73 33.32
  L 243.21 33.26
  A 0.68 0.68 0.0 0 0 242.53 33.97
  L 242.67 37.75
  A 0.68 0.68 0.0 0 0 243.36 38.41
  L 251.84 38.34"
        />
        <path stroke="#bcbcbc" vector-effect="non-scaling-stroke" d="
  M 274.34 33.94
  A 0.61 0.61 0.0 0 0 273.73 33.33
  L 269.99 33.33
  A 0.61 0.61 0.0 0 0 269.38 33.94
  L 269.38 57.38
  A 0.61 0.61 0.0 0 0 269.99 57.99
  L 273.73 57.99
  A 0.61 0.61 0.0 0 0 274.34 57.38
  L 274.34 33.94"
        />
        <path stroke="#bcbcbc" vector-effect="non-scaling-stroke" d="
  M 301.2132 37.9770
  A 4.68 4.68 0.0 0 0 296.5169 33.3134
  L 281.2170 33.3668
  A 4.68 4.68 0.0 0 0 276.5534 38.0631
  L 276.6068 53.3630
  A 4.68 4.68 0.0 0 0 281.3031 58.0266
  L 296.6030 57.9732
  A 4.68 4.68 0.0 0 0 301.2666 53.2769
  L 301.2132 37.9770"
        />
        <path stroke="#bcbcbc" vector-effect="non-scaling-stroke" d="
  M 323.75 49.85
  A 0.36 0.34 -24.4 0 1 323.41 49.73
  L 310.09 33.75
  Q 309.72 33.31 309.14 33.32
  L 305.00 33.38
  Q 304.40 33.39 304.40 34.00
  L 304.31 57.27
  Q 304.31 57.98 305.02 57.99
  L 308.77 58.02
  Q 309.31 58.02 309.31 57.48
  L 309.27 41.77
  Q 309.27 40.77 309.91 41.54
  L 323.10 57.36
  A 1.77 1.76 70.2 0 0 324.46 58.00
  L 328.31 58.01
  Q 329.02 58.02 329.02 57.31
  L 329.04 33.93
  Q 329.04 33.32 328.43 33.31
  L 324.97 33.26
  Q 324.01 33.24 324.01 34.20
  Q 324.00 41.71 324.03 49.53
  Q 324.04 49.79 323.75 49.85"
        />
        <path stroke="#bcbcbc" vector-effect="non-scaling-stroke" d="
  M 352.01 49.03
  L 352.01 52.17
  Q 352.01 53.09 351.10 53.09
  Q 344.77 53.09 338.49 52.96
  Q 337.25 52.93 336.89 51.74
  A 1.02 1.00 -7.7 0 0 335.93 51.02
  L 332.98 50.99
  Q 332.35 50.98 332.29 51.60
  C 331.88 55.46 333.66 58.06 337.49 58.03
  Q 344.73 57.95 352.17 58.03
  C 357.78 58.10 357.22 50.98 356.77 47.41
  C 356.47 44.96 354.72 43.31 352.22 43.28
  Q 345.35 43.18 337.96 43.26
  Q 337.17 43.27 337.15 42.48
  L 337.09 38.88
  A 0.66 0.66 0.0 0 1 337.75 38.21
  L 351.20 38.25
  Q 351.91 38.25 351.90 38.97
  Q 351.87 40.31 353.14 40.42
  Q 354.75 40.56 356.38 40.21
  Q 356.86 40.11 356.90 39.61
  Q 357.43 33.19 351.04 33.32
  Q 344.29 33.46 337.33 33.41
  C 331.28 33.36 332.00 39.46 332.31 43.58
  Q 332.65 48.08 337.45 48.09
  Q 344.62 48.10 351.19 48.19
  Q 352.01 48.20 352.01 49.03"
        />
        <path stroke="#8db1c6" vector-effect="non-scaling-stroke" d="
  M 20.71 42.36
  C 23.40 47.07 26.44 51.77 29.32 56.55
  Q 29.38 56.66 29.48 56.58
  Q 29.52 56.55 29.54 56.50
  Q 29.58 56.39 29.53 56.27
  Q 26.28 48.08 23.14 39.64
  Q 22.78 38.70 22.10 39.44
  Q 20.96 40.67 20.90 40.74
  Q 20.21 41.49 20.71 42.36"
        />
        <path stroke="#8db1c6" vector-effect="non-scaling-stroke" d="
  M 61.08 42.07
  A 0.15 0.15 0.0 0 0 60.97 41.91
  L 60.68 41.84
  A 0.15 0.15 0.0 0 0 60.50 41.94
  L 55.88 58.83
  A 0.15 0.15 0.0 0 0 56.06 59.02
  L 59.43 58.33
  A 0.15 0.15 0.0 0 0 59.55 58.20
  L 61.08 42.07"
        />
        <path stroke="#8db1c6" vector-effect="non-scaling-stroke" d="
  M 29.40 60.51
  L 17.80 46.63
  Q 17.30 46.03 16.94 46.72
  L 15.89 48.70
  Q 15.50 49.44 16.13 49.98
  Q 24.24 56.97 31.00 63.33
  Q 31.49 63.79 32.00 63.80
  A 0.24 0.24 0.0 0 0 32.12 63.35
  Q 29.78 62.03 30.17 59.91
  Q 30.29 59.29 29.92 58.77
  C 29.13 57.65 28.22 56.63 27.55 55.42
  Q 24.03 49.07 19.76 42.32
  A 0.18 0.18 0.0 0 0 19.45 42.32
  L 17.80 45.04
  Q 17.63 45.33 17.84 45.58
  Q 23.71 52.62 30.05 60.03
  Q 30.19 60.20 30.03 60.34
  L 29.80 60.54
  Q 29.58 60.73 29.40 60.51"
        />
        <path stroke="#8db1c6" vector-effect="non-scaling-stroke" d="
  M 32.99 66.98
  Q 32.51 67.15 32.24 66.96
  Q 23.19 60.79 14.40 54.91
  Q 13.75 54.47 13.64 55.25
  L 13.33 57.50
  Q 13.21 58.36 13.99 58.76
  L 35.11 69.44
  Q 36.80 70.30 35.53 68.90
  L 34.98 68.30
  Q 34.59 67.87 34.02 67.91
  Q 33.16 67.97 32.99 66.98"
        />
        <path stroke="#8db1c6" vector-effect="non-scaling-stroke" d="
  M 32.99 66.98
  L 33.51 67.11
  Q 34.31 67.32 33.85 66.62
  C 32.80 65.06 31.33 64.57 30.02 63.36
  Q 22.57 56.44 15.46 50.34
  A 0.20 0.20 0.0 0 0 15.14 50.43
  L 14.14 53.59
  Q 14.07 53.82 14.27 53.96
  Q 22.78 59.74 31.15 65.28
  Q 31.21 65.32 32.22 65.76
  Q 32.95 66.08 32.99 66.98"
        />
        <path stroke="#8ec1d6" vector-effect="non-scaling-stroke" d="
  M 64.77 60.39
  Q 56.69 67.89 49.43 75.34
  Q 48.91 75.87 49.58 76.18
  L 51.43 77.06
  A 1.05 1.05 0.0 0 0 52.69 76.78
  L 70.16 55.33
  Q 71.02 54.28 69.92 55.07
  C 67.98 56.46 66.38 58.89 64.77 60.39"
        />
        <path stroke="#8ec1d6" vector-effect="non-scaling-stroke" d="
  M 65.33 58.35
  Q 65.98 57.12 64.91 58.01
  Q 62.95 59.63 60.83 61.29
  Q 52.20 68.09 45.12 73.49
  Q 44.12 74.26 45.29 74.71
  L 47.06 75.39
  Q 47.97 75.74 48.66 75.05
  Q 55.28 68.44 61.66 62.13
  C 62.91 60.89 64.51 59.88 65.33 58.35"
        />
        <path stroke="#8db1c6" vector-effect="non-scaling-stroke" d="
  M 56.55 62.27
  L 41.16 71.04
  A 0.62 0.62 0.0 0 0 41.13 72.10
  L 42.88 73.22
  Q 43.64 73.70 44.35 73.15
  L 57.49 62.90"
        />
        <path stroke="#8ec1d6" vector-effect="non-scaling-stroke" d="
  M 57.49 62.90
  Q 60.75 60.72 62.05 59.52
  Q 62.21 59.38 62.34 59.01
  Q 62.53 58.48 62.05 58.78
  L 56.55 62.27"
        />
        <path stroke="#1c739d" vector-effect="non-scaling-stroke" d="
  M 57.49 62.90
  Q 57.53 62.23 56.55 62.27"
        />
        <path stroke="#dff4fc" vector-effect="non-scaling-stroke" d="
  M 36.06 70.88
  Q 36.35 71.81 37.70 71.88
  Q 38.59 71.93 38.06 71.21
  L 37.80 70.86
  Q 37.22 70.07 36.58 70.82
  Q 36.41 71.01 36.06 70.88"
        />
        <path stroke="#8db1c6" vector-effect="non-scaling-stroke" d="
  M 36.06 70.88
  L 13.69 59.33
  Q 12.89 58.92 12.90 59.82
  L 12.91 62.21
  A 1.24 1.24 0.0 0 0 13.74 63.38
  Q 24.19 67.03 34.98 71.00
  Q 35.76 71.29 36.06 70.88"
        />
        <path stroke="#8db1c6" vector-effect="non-scaling-stroke" d="
  M 54.41 61.03
  A 0.23 0.23 0.0 0 1 54.44 61.46
  L 37.14 68.29
  A 0.19 0.19 0.0 0 0 37.09 68.62
  L 39.78 70.74
  Q 39.99 70.91 40.22 70.78
  Q 47.17 66.77 54.47 62.47
  Q 55.48 61.87 56.54 61.42
  Q 57.97 60.81 58.78 59.74
  Q 58.96 59.50 58.67 59.59
  Q 58.55 59.63 58.51 59.80
  Q 58.49 59.91 58.38 59.95
  L 55.70 60.78
  Q 55.12 60.96 54.58 60.67
  Q 53.81 60.24 52.91 60.25
  Q 52.41 60.26 52.51 60.75
  L 52.57 61.04
  A 0.07 0.05 -13.3 0 0 52.65 61.08
  Q 53.48 60.80 54.41 61.03"
        />
        <path stroke="#8db1c6" vector-effect="non-scaling-stroke" d="
  M 49.32 61.31
  Q 49.35 61.44 49.22 61.47
  L 35.27 64.49
  Q 33.80 64.81 34.88 65.85
  L 35.83 66.77
  Q 36.88 67.79 38.22 67.21
  Q 43.01 65.11 47.75 63.38
  C 49.16 62.86 50.15 61.84 51.76 61.87
  A 0.28 0.28 0.0 0 0 52.03 61.67
  L 52.13 61.35
  Q 52.27 60.88 51.79 60.94
  Q 50.45 61.09 49.53 60.32
  Q 49.08 59.94 48.49 59.97
  L 32.79 60.74
  Q 31.77 60.79 32.32 61.65
  L 33.37 63.33
  Q 33.86 64.12 34.77 63.91
  L 48.87 60.75
  A 0.32 0.32 0.0 0 1 49.25 60.99
  L 49.32 61.31"
        />
        <path stroke="#8ec1d6" vector-effect="non-scaling-stroke" d="
  M 64.28 30.31
  Q 63.90 31.00 64.46 31.51
  Q 64.87 31.88 64.99 31.34
  Q 65.12 30.75 64.82 30.29
  Q 64.53 29.84 64.28 30.31"
        />
        <path stroke="#bcbcbc" vector-effect="non-scaling-stroke" d="
  M 126.03 38.71
  A 0.45 0.45 0.0 0 0 125.58 38.26
  L 111.68 38.26
  A 0.45 0.45 0.0 0 0 111.23 38.71
  L 111.23 52.61
  A 0.45 0.45 0.0 0 0 111.68 53.06
  L 125.58 53.06
  A 0.45 0.45 0.0 0 0 126.03 52.61
  L 126.03 38.71"
        />
        <path stroke="#bcbcbc" vector-effect="non-scaling-stroke" d="
  M 209.0254 38.9271
  A 0.67 0.67 0.0 0 0 208.3542 38.2583
  L 194.9142 38.2817
  A 0.67 0.67 0.0 0 0 194.2454 38.9529
  L 194.2546 44.2329
  A 0.67 0.67 0.0 0 0 194.9258 44.9017
  L 208.3658 44.8783
  A 0.67 0.67 0.0 0 0 209.0346 44.2071
  L 209.0254 38.9271"
        />
        <path stroke="#bcbcbc" vector-effect="non-scaling-stroke" d="
  M 236.9876 39.0724
  A 0.71 0.71 0.0 0 0 236.2826 38.3574
  L 222.7229 38.2627
  A 0.71 0.71 0.0 0 0 222.0080 38.9678
  L 221.9724 44.0676
  A 0.71 0.71 0.0 0 0 222.6774 44.7826
  L 236.2371 44.8773
  A 0.71 0.71 0.0 0 0 236.9520 44.1722
  L 236.9876 39.0724"
        />
        <path stroke="#bcbcbc" vector-effect="non-scaling-stroke" d="
  M 296.2618 38.9429
  A 0.67 0.67 0.0 0 0 295.5929 38.2717
  L 282.1929 38.2483
  A 0.67 0.67 0.0 0 0 281.5218 38.9171
  L 281.4982 52.3971
  A 0.67 0.67 0.0 0 0 282.1671 53.0683
  L 295.5671 53.0917
  A 0.67 0.67 0.0 0 0 296.2382 52.4229
  L 296.2618 38.9429"
        />
    </g>
    <path fill="#ffffff" d="
  M 0.00 0.00
  L 370.00 0.00
  L 370.00 89.00
  L 0.00 89.00
  L 0.00 0.00
  Z
  M 29.19 17.46
  Q 27.55 17.81 25.95 18.29
  Q 25.74 18.36 25.78 18.58
  L 25.78 18.59
  Q 25.83 18.81 26.05 18.78
  Q 27.72 18.56 29.30 17.97
  L 36.03 19.57
  L 38.90 20.93
  Q 41.65 22.20 44.42 22.13
  A 0.04 0.04 0.0 0 1 44.45 22.20
  Q 44.36 22.32 44.41 22.47
  Q 44.61 23.13 43.98 22.88
  Q 43.76 22.79 43.57 22.88
  Q 42.57 23.33 43.59 23.78
  Q 43.87 23.90 44.46 23.87
  Q 44.96 24.30 45.18 23.88
  Q 45.18 24.30 45.76 24.54
  Q 53.65 27.83 61.53 31.10
  Q 62.04 31.31 62.02 30.76
  L 61.92 27.75
  Q 61.41 27.31 61.74 26.61
  L 60.84 23.09
  Q 60.46 22.46 60.66 22.02
  L 59.88 19.06
  Q 59.62 17.94 59.10 17.68
  Q 58.42 15.75 57.73 14.94
  L 57.28 13.80
  Q 56.67 12.12 55.39 10.96
  Q 55.02 10.62 54.54 10.75
  L 29.19 17.46
  Z
  M 19.32 20.72
  Q 17.67 31.09 16.08 40.65
  Q 15.84 42.11 16.66 43.39
  Q 16.98 43.88 17.30 43.39
  Q 17.86 42.51 17.30 41.74
  A 1.23 1.20 -55.6 0 1 17.12 40.70
  L 23.12 20.12
  A 0.27 0.27 0.0 0 0 22.80 19.78
  L 19.69 20.35
  Q 19.37 20.40 19.32 20.72
  Z
  M 19.66 38.84
  Q 20.27 38.59 20.18 37.91
  Q 20.11 37.33 20.35 36.79
  L 27.62 20.23
  A 0.19 0.18 -76.1 0 0 27.47 19.97
  L 24.28 19.74
  Q 24.07 19.72 24.01 19.93
  Q 21.21 29.03 18.84 37.89
  C 18.51 39.12 17.69 40.07 18.35 41.42
  Q 18.68 42.09 18.94 41.39
  Q 19.25 40.51 19.21 39.54
  A 0.73 0.72 77.9 0 1 19.66 38.84
  Z
  M 21.12 38.19
  A 0.19 0.19 0.0 0 0 21.37 38.12
  L 32.29 20.45
  A 0.19 0.19 0.0 0 0 32.14 20.16
  L 28.69 19.88
  A 0.19 0.19 0.0 0 0 28.50 19.99
  L 20.73 37.79
  A 0.19 0.19 0.0 0 0 20.82 38.03
  L 21.12 38.19
  Z
  M 14.99 45.77
  Q 15.86 45.13 15.47 44.20
  Q 14.95 42.98 15.15 41.77
  Q 16.88 31.07 18.63 20.86
  Q 18.72 20.33 18.20 20.47
  L 15.47 21.20
  Q 14.88 21.36 14.85 21.97
  Q 14.10 36.04 13.47 48.75
  Q 13.44 49.28 13.65 50.78
  Q 13.66 50.79 13.67 50.79
  L 13.91 50.75
  Q 13.99 50.74 13.99 50.67
  Q 13.98 48.18 14.58 46.33
  Q 14.70 45.98 14.99 45.77
  Z
  M 33.02 20.72
  L 23.25 36.53
  Q 22.67 37.47 23.57 36.83
  C 25.10 35.74 25.67 34.28 26.81 32.98
  Q 31.65 27.49 36.67 21.77
  A 0.17 0.17 0.0 0 0 36.59 21.50
  Q 35.01 20.99 33.45 20.55
  Q 33.17 20.47 33.02 20.72
  Z
  M 64.26 25.90
  Q 70.22 37.51 75.55 47.76
  A 0.44 0.43 49.2 0 0 76.29 47.82
  L 77.76 45.78
  Q 78.14 45.26 77.79 44.72
  L 62.68 21.59
  Q 62.35 21.10 62.32 21.69
  Q 62.30 21.97 62.40 22.19
  Q 63.32 24.07 64.26 25.90
  Z
  M 37.72 21.87
  A 0.16 0.16 0.0 0 0 37.53 21.91
  L 26.65 34.12
  A 0.16 0.16 0.0 0 0 26.65 34.34
  L 26.86 34.55
  A 0.16 0.16 0.0 0 0 27.07 34.57
  L 40.95 23.59
  A 0.16 0.16 0.0 0 0 40.92 23.32
  L 37.72 21.87
  Z
  M 61.53 32.01
  C 56.68 29.86 51.53 27.64 46.37 25.64
  Q 46.23 25.58 46.12 25.68
  Q 46.08 25.72 46.08 25.77
  Q 46.07 25.96 46.23 26.06
  Q 53.59 30.66 60.78 35.53
  Q 61.45 35.97 61.62 35.19
  L 62.09 33.11
  Q 62.26 32.33 61.53 32.01
  Z
  M 62.79 38.29
  L 62.53 38.99
  Q 62.01 39.79 61.90 40.86
  Q 61.04 49.15 60.52 57.52
  Q 60.49 58.03 61.00 57.95
  Q 63.12 57.58 63.96 56.10
  Q 64.47 55.63 64.55 56.09
  Q 66.47 56.14 67.66 54.68
  Q 67.95 54.34 67.85 53.90
  L 64.63 38.92
  Q 64.53 38.45 64.25 38.07
  Q 63.29 36.77 63.93 35.27
  Q 64.31 34.38 64.51 35.32
  Q 66.53 44.78 68.70 53.88
  A 0.23 0.23 0.0 0 0 69.06 54.02
  L 71.55 52.21
  Q 71.81 52.02 71.70 51.72
  L 64.73 32.58
  Q 64.66 32.41 64.84 32.34
  L 65.10 32.25
  Q 65.34 32.16 65.43 32.40
  L 72.11 50.76
  Q 72.45 51.68 73.15 50.99
  L 74.59 49.60
  A 1.23 1.22 54.3 0 0 74.82 48.16
  Q 70.38 39.48 65.87 30.14
  Q 65.78 29.96 65.58 29.92
  Q 65.37 29.88 65.23 29.65
  Q 65.17 29.55 65.13 29.43
  Q 64.57 27.67 63.80 26.13
  Q 63.74 26.02 63.61 26.01
  Q 63.56 26.01 63.51 26.03
  Q 63.28 26.15 63.36 26.40
  C 63.94 28.31 63.38 29.94 63.51 31.88
  Q 63.70 34.54 62.56 37.36
  Q 62.42 37.71 62.79 38.29
  Z
  M 104.0706 33.8743
  A 0.51 0.51 0.0 0 0 103.5615 33.3634
  L 99.6615 33.3566
  A 0.51 0.51 0.0 0 0 99.1506 33.8657
  L 99.1094 57.4857
  A 0.51 0.51 0.0 0 0 99.6185 57.9966
  L 103.5185 58.0034
  A 0.51 0.51 0.0 0 0 104.0294 57.4943
  L 104.0706 33.8743
  Z
  M 130.9434 38.0270
  A 4.72 4.72 0.0 0 0 126.2069 33.3235
  L 110.9870 33.3766
  A 4.72 4.72 0.0 0 0 106.2835 38.1131
  L 106.3366 53.3330
  A 4.72 4.72 0.0 0 0 111.0731 58.0365
  L 126.2930 57.9834
  A 4.72 4.72 0.0 0 0 130.9965 53.2469
  L 130.9434 38.0270
  Z
  M 138.87 38.93
  Q 138.87 38.23 139.57 38.23
  L 152.80 38.26
  A 0.75 0.74 81.5 0 1 153.51 38.79
  L 153.79 39.70
  Q 153.96 40.25 154.52 40.34
  Q 156.24 40.62 157.83 40.26
  A 1.12 1.11 -3.9 0 0 158.70 39.27
  C 159.07 35.18 156.68 33.40 152.71 33.34
  Q 146.96 33.27 141.46 33.33
  C 139.31 33.35 137.02 33.30 135.46 34.76
  C 133.39 36.70 133.95 41.26 134.13 43.86
  Q 134.41 47.86 138.51 47.99
  Q 145.35 48.21 152.80 48.03
  A 0.93 0.93 0.0 0 1 153.75 48.96
  L 153.75 52.02
  Q 153.75 53.05 152.73 53.04
  L 140.00 52.94
  A 0.99 0.99 0.0 0 1 139.15 52.46
  Q 137.81 50.32 134.57 51.09
  Q 134.15 51.19 134.10 51.62
  Q 133.32 58.12 139.55 58.00
  Q 145.93 57.88 153.38 58.02
  C 158.13 58.12 158.73 54.55 158.79 50.82
  C 158.84 47.21 158.30 43.38 153.70 43.30
  Q 146.37 43.16 139.55 43.30
  Q 138.86 43.31 138.86 42.62
  L 138.87 38.93
  Z
  M 167.55 38.25
  L 186.01 38.25
  Q 186.52 38.25 186.52 37.74
  L 186.50 34.01
  A 0.66 0.66 0.0 0 0 185.85 33.35
  Q 176.53 33.29 167.13 33.36
  Q 162.05 33.41 161.97 38.44
  Q 161.86 44.99 161.95 52.94
  Q 162.01 57.96 167.07 57.98
  Q 176.11 58.01 185.76 57.99
  A 0.72 0.72 0.0 0 0 186.48 57.28
  L 186.51 53.72
  Q 186.51 53.17 185.97 53.16
  L 167.28 53.03
  A 0.49 0.49 0.0 0 1 166.79 52.53
  L 166.84 38.95
  Q 166.84 38.25 167.55 38.25
  Z
  M 194.99 49.75
  L 200.91 49.75
  A 1.87 1.86 70.0 0 1 202.34 50.42
  L 207.49 56.67
  A 3.77 3.77 0.0 0 0 210.42 58.04
  L 213.18 58.01
  Q 214.88 58.00 213.93 56.60
  Q 211.85 53.54 209.16 50.69
  Q 208.39 49.86 209.50 49.70
  Q 213.82 49.07 213.98 44.86
  Q 214.11 41.21 213.88 37.84
  Q 213.58 33.55 209.13 33.48
  Q 199.10 33.34 190.28 33.36
  Q 189.30 33.36 189.31 34.34
  L 189.32 57.42
  Q 189.32 58.01 189.91 58.01
  L 193.77 58.00
  Q 194.29 58.00 194.29 57.48
  L 194.24 50.51
  Q 194.23 49.75 194.99 49.75
  Z
  M 222.90 49.87
  Q 229.36 49.71 236.45 49.73
  Q 241.28 49.74 241.76 45.01
  Q 242.19 40.74 241.66 37.22
  Q 241.09 33.42 236.94 33.36
  Q 228.01 33.24 217.94 33.36
  Q 217.08 33.37 217.08 34.23
  L 217.15 57.32
  Q 217.15 57.98 217.82 57.99
  L 221.36 58.03
  Q 222.01 58.03 222.01 57.38
  L 222.03 50.76
  A 0.89 0.89 0.0 0 1 222.90 49.87
  Z
  M 251.84 38.34
  A 0.68 0.68 0.0 0 1 252.52 39.02
  L 252.55 57.34
  A 0.68 0.68 0.0 0 0 253.23 58.02
  L 256.85 57.99
  A 0.68 0.68 0.0 0 0 257.53 57.31
  L 257.51 38.92
  A 0.68 0.68 0.0 0 1 258.20 38.24
  L 266.79 38.34
  A 0.68 0.68 0.0 0 0 267.48 37.65
  L 267.41 33.99
  A 0.68 0.68 0.0 0 0 266.73 33.32
  L 243.21 33.26
  A 0.68 0.68 0.0 0 0 242.53 33.97
  L 242.67 37.75
  A 0.68 0.68 0.0 0 0 243.36 38.41
  L 251.84 38.34
  Z
  M 274.34 33.94
  A 0.61 0.61 0.0 0 0 273.73 33.33
  L 269.99 33.33
  A 0.61 0.61 0.0 0 0 269.38 33.94
  L 269.38 57.38
  A 0.61 0.61 0.0 0 0 269.99 57.99
  L 273.73 57.99
  A 0.61 0.61 0.0 0 0 274.34 57.38
  L 274.34 33.94
  Z
  M 301.2132 37.9770
  A 4.68 4.68 0.0 0 0 296.5169 33.3134
  L 281.2170 33.3668
  A 4.68 4.68 0.0 0 0 276.5534 38.0631
  L 276.6068 53.3630
  A 4.68 4.68 0.0 0 0 281.3031 58.0266
  L 296.6030 57.9732
  A 4.68 4.68 0.0 0 0 301.2666 53.2769
  L 301.2132 37.9770
  Z
  M 323.75 49.85
  A 0.36 0.34 -24.4 0 1 323.41 49.73
  L 310.09 33.75
  Q 309.72 33.31 309.14 33.32
  L 305.00 33.38
  Q 304.40 33.39 304.40 34.00
  L 304.31 57.27
  Q 304.31 57.98 305.02 57.99
  L 308.77 58.02
  Q 309.31 58.02 309.31 57.48
  L 309.27 41.77
  Q 309.27 40.77 309.91 41.54
  L 323.10 57.36
  A 1.77 1.76 70.2 0 0 324.46 58.00
  L 328.31 58.01
  Q 329.02 58.02 329.02 57.31
  L 329.04 33.93
  Q 329.04 33.32 328.43 33.31
  L 324.97 33.26
  Q 324.01 33.24 324.01 34.20
  Q 324.00 41.71 324.03 49.53
  Q 324.04 49.79 323.75 49.85
  Z
  M 352.01 49.03
  L 352.01 52.17
  Q 352.01 53.09 351.10 53.09
  Q 344.77 53.09 338.49 52.96
  Q 337.25 52.93 336.89 51.74
  A 1.02 1.00 -7.7 0 0 335.93 51.02
  L 332.98 50.99
  Q 332.35 50.98 332.29 51.60
  C 331.88 55.46 333.66 58.06 337.49 58.03
  Q 344.73 57.95 352.17 58.03
  C 357.78 58.10 357.22 50.98 356.77 47.41
  C 356.47 44.96 354.72 43.31 352.22 43.28
  Q 345.35 43.18 337.96 43.26
  Q 337.17 43.27 337.15 42.48
  L 337.09 38.88
  A 0.66 0.66 0.0 0 1 337.75 38.21
  L 351.20 38.25
  Q 351.91 38.25 351.90 38.97
  Q 351.87 40.31 353.14 40.42
  Q 354.75 40.56 356.38 40.21
  Q 356.86 40.11 356.90 39.61
  Q 357.43 33.19 351.04 33.32
  Q 344.29 33.46 337.33 33.41
  C 331.28 33.36 332.00 39.46 332.31 43.58
  Q 332.65 48.08 337.45 48.09
  Q 344.62 48.10 351.19 48.19
  Q 352.01 48.20 352.01 49.03
  Z
  M 20.71 42.36
  C 23.40 47.07 26.44 51.77 29.32 56.55
  Q 29.38 56.66 29.48 56.58
  Q 29.52 56.55 29.54 56.50
  Q 29.58 56.39 29.53 56.27
  Q 26.28 48.08 23.14 39.64
  Q 22.78 38.70 22.10 39.44
  Q 20.96 40.67 20.90 40.74
  Q 20.21 41.49 20.71 42.36
  Z
  M 61.08 42.07
  A 0.15 0.15 0.0 0 0 60.97 41.91
  L 60.68 41.84
  A 0.15 0.15 0.0 0 0 60.50 41.94
  L 55.88 58.83
  A 0.15 0.15 0.0 0 0 56.06 59.02
  L 59.43 58.33
  A 0.15 0.15 0.0 0 0 59.55 58.20
  L 61.08 42.07
  Z
  M 29.40 60.51
  L 17.80 46.63
  Q 17.30 46.03 16.94 46.72
  L 15.89 48.70
  Q 15.50 49.44 16.13 49.98
  Q 24.24 56.97 31.00 63.33
  Q 31.49 63.79 32.00 63.80
  A 0.24 0.24 0.0 0 0 32.12 63.35
  Q 29.78 62.03 30.17 59.91
  Q 30.29 59.29 29.92 58.77
  C 29.13 57.65 28.22 56.63 27.55 55.42
  Q 24.03 49.07 19.76 42.32
  A 0.18 0.18 0.0 0 0 19.45 42.32
  L 17.80 45.04
  Q 17.63 45.33 17.84 45.58
  Q 23.71 52.62 30.05 60.03
  Q 30.19 60.20 30.03 60.34
  L 29.80 60.54
  Q 29.58 60.73 29.40 60.51
  Z
  M 32.99 66.98
  Q 32.51 67.15 32.24 66.96
  Q 23.19 60.79 14.40 54.91
  Q 13.75 54.47 13.64 55.25
  L 13.33 57.50
  Q 13.21 58.36 13.99 58.76
  L 35.11 69.44
  Q 36.80 70.30 35.53 68.90
  L 34.98 68.30
  Q 34.59 67.87 34.02 67.91
  Q 33.16 67.97 32.99 66.98
  L 33.51 67.11
  Q 34.31 67.32 33.85 66.62
  C 32.80 65.06 31.33 64.57 30.02 63.36
  Q 22.57 56.44 15.46 50.34
  A 0.20 0.20 0.0 0 0 15.14 50.43
  L 14.14 53.59
  Q 14.07 53.82 14.27 53.96
  Q 22.78 59.74 31.15 65.28
  Q 31.21 65.32 32.22 65.76
  Q 32.95 66.08 32.99 66.98
  Z
  M 64.77 60.39
  Q 56.69 67.89 49.43 75.34
  Q 48.91 75.87 49.58 76.18
  L 51.43 77.06
  A 1.05 1.05 0.0 0 0 52.69 76.78
  L 70.16 55.33
  Q 71.02 54.28 69.92 55.07
  C 67.98 56.46 66.38 58.89 64.77 60.39
  Z
  M 65.33 58.35
  Q 65.98 57.12 64.91 58.01
  Q 62.95 59.63 60.83 61.29
  Q 52.20 68.09 45.12 73.49
  Q 44.12 74.26 45.29 74.71
  L 47.06 75.39
  Q 47.97 75.74 48.66 75.05
  Q 55.28 68.44 61.66 62.13
  C 62.91 60.89 64.51 59.88 65.33 58.35
  Z
  M 56.55 62.27
  L 41.16 71.04
  A 0.62 0.62 0.0 0 0 41.13 72.10
  L 42.88 73.22
  Q 43.64 73.70 44.35 73.15
  L 57.49 62.90
  Q 60.75 60.72 62.05 59.52
  Q 62.21 59.38 62.34 59.01
  Q 62.53 58.48 62.05 58.78
  L 56.55 62.27
  Z
  M 36.06 70.88
  Q 36.35 71.81 37.70 71.88
  Q 38.59 71.93 38.06 71.21
  L 37.80 70.86
  Q 37.22 70.07 36.58 70.82
  Q 36.41 71.01 36.06 70.88
  L 13.69 59.33
  Q 12.89 58.92 12.90 59.82
  L 12.91 62.21
  A 1.24 1.24 0.0 0 0 13.74 63.38
  Q 24.19 67.03 34.98 71.00
  Q 35.76 71.29 36.06 70.88
  Z
  M 54.41 61.03
  A 0.23 0.23 0.0 0 1 54.44 61.46
  L 37.14 68.29
  A 0.19 0.19 0.0 0 0 37.09 68.62
  L 39.78 70.74
  Q 39.99 70.91 40.22 70.78
  Q 47.17 66.77 54.47 62.47
  Q 55.48 61.87 56.54 61.42
  Q 57.97 60.81 58.78 59.74
  Q 58.96 59.50 58.67 59.59
  Q 58.55 59.63 58.51 59.80
  Q 58.49 59.91 58.38 59.95
  L 55.70 60.78
  Q 55.12 60.96 54.58 60.67
  Q 53.81 60.24 52.91 60.25
  Q 52.41 60.26 52.51 60.75
  L 52.57 61.04
  A 0.07 0.05 -13.3 0 0 52.65 61.08
  Q 53.48 60.80 54.41 61.03
  Z
  M 49.32 61.31
  Q 49.35 61.44 49.22 61.47
  L 35.27 64.49
  Q 33.80 64.81 34.88 65.85
  L 35.83 66.77
  Q 36.88 67.79 38.22 67.21
  Q 43.01 65.11 47.75 63.38
  C 49.16 62.86 50.15 61.84 51.76 61.87
  A 0.28 0.28 0.0 0 0 52.03 61.67
  L 52.13 61.35
  Q 52.27 60.88 51.79 60.94
  Q 50.45 61.09 49.53 60.32
  Q 49.08 59.94 48.49 59.97
  L 32.79 60.74
  Q 31.77 60.79 32.32 61.65
  L 33.37 63.33
  Q 33.86 64.12 34.77 63.91
  L 48.87 60.75
  A 0.32 0.32 0.0 0 1 49.25 60.99
  L 49.32 61.31
  Z"
    />
    <path fill="#1d82ad" d="
  M 57.28 13.80
  Q 46.84 15.25 36.47 16.91
  C 35.47 17.07 34.45 16.74 33.51 17.20
  Q 32.79 17.56 33.57 17.75
  C 36.87 18.55 39.52 17.11 42.77 16.79
  C 47.78 16.29 52.65 15.06 57.73 14.94
  Q 58.42 15.75 59.10 17.68
  L 38.93 18.21
  Q 38.69 18.21 38.69 18.46
  L 38.69 18.77
  Q 38.69 18.87 38.79 18.87
  L 59.88 19.06
  L 60.66 22.02
  L 36.03 19.57
  L 29.30 17.97
  Q 29.03 18.14 29.19 17.46
  L 54.54 10.75
  Q 55.02 10.62 55.39 10.96
  Q 56.67 12.12 57.28 13.80
  Z"
    />
    <path fill="#bee8f9" d="
  M 57.28 13.80
  L 57.73 14.94
  C 52.65 15.06 47.78 16.29 42.77 16.79
  C 39.52 17.11 36.87 18.55 33.57 17.75
  Q 32.79 17.56 33.51 17.20
  C 34.45 16.74 35.47 17.07 36.47 16.91
  Q 46.84 15.25 57.28 13.80
  Z"
    />
    <path fill="#bee8f9" d="
  M 59.10 17.68
  Q 59.62 17.94 59.88 19.06
  L 38.79 18.87
  Q 38.69 18.87 38.69 18.77
  L 38.69 18.46
  Q 38.69 18.21 38.93 18.21
  L 59.10 17.68
  Z"
    />
    <path fill="#bee8f9" d="
  M 29.19 17.46
  Q 29.03 18.14 29.30 17.97
  Q 27.72 18.56 26.05 18.78
  Q 25.83 18.81 25.78 18.59
  L 25.78 18.58
  Q 25.74 18.36 25.95 18.29
  Q 27.55 17.81 29.19 17.46
  Z"
    />
    <path fill="#bee8f9" d="
  M 36.03 19.57
  L 60.66 22.02
  Q 60.46 22.46 60.84 23.09
  L 38.90 20.93
  L 36.03 19.57
  Z"
    />
    <path fill="#1b638c" d="
  M 19.32 20.72
  Q 19.37 20.40 19.69 20.35
  L 22.80 19.78
  A 0.27 0.27 0.0 0 1 23.12 20.12
  L 17.12 40.70
  A 1.23 1.20 -55.6 0 0 17.30 41.74
  Q 17.86 42.51 17.30 43.39
  Q 16.98 43.88 16.66 43.39
  Q 15.84 42.11 16.08 40.65
  Q 17.67 31.09 19.32 20.72
  Z"
    />
    <path fill="#1b638c" d="
  M 19.21 39.54
  Q 19.25 40.51 18.94 41.39
  Q 18.68 42.09 18.35 41.42
  C 17.69 40.07 18.51 39.12 18.84 37.89
  Q 21.21 29.03 24.01 19.93
  Q 24.07 19.72 24.28 19.74
  L 27.47 19.97
  A 0.19 0.18 -76.1 0 1 27.62 20.23
  L 20.35 36.79
  Q 20.11 37.33 20.18 37.91
  Q 20.27 38.59 19.66 38.84
  A 0.73 0.72 77.9 0 0 19.21 39.54
  Z"
    />
    <path fill="#1d82ad" d="
  M 21.12 38.19
  L 20.82 38.03
  A 0.19 0.19 0.0 0 1 20.73 37.79
  L 28.50 19.99
  A 0.19 0.19 0.0 0 1 28.69 19.88
  L 32.14 20.16
  A 0.19 0.19 0.0 0 1 32.29 20.45
  L 21.37 38.12
  A 0.19 0.19 0.0 0 1 21.12 38.19
  Z"
    />
    <path fill="#1b638c" d="
  M 14.58 46.33
  Q 13.98 48.18 13.99 50.67
  Q 13.99 50.74 13.91 50.75
  L 13.67 50.79
  Q 13.66 50.79 13.65 50.78
  Q 13.44 49.28 13.47 48.75
  Q 14.10 36.04 14.85 21.97
  Q 14.88 21.36 15.47 21.20
  L 18.20 20.47
  Q 18.72 20.33 18.63 20.86
  Q 16.88 31.07 15.15 41.77
  Q 14.95 42.98 15.47 44.20
  Q 15.86 45.13 14.99 45.77
  Q 14.70 45.98 14.58 46.33
  Z"
    />
    <path fill="#1d82ad" d="
  M 33.02 20.72
  Q 33.17 20.47 33.45 20.55
  Q 35.01 20.99 36.59 21.50
  A 0.17 0.17 0.0 0 1 36.67 21.77
  Q 31.65 27.49 26.81 32.98
  C 25.67 34.28 25.10 35.74 23.57 36.83
  Q 22.67 37.47 23.25 36.53
  L 33.02 20.72
  Z"
    />
    <path fill="#1d82ad" d="
  M 60.84 23.09
  L 61.74 26.61
  L 45.01 22.97
  Q 44.73 22.91 44.82 23.19
  L 44.93 23.52
  Q 45.02 23.80 44.74 23.87
  Q 44.61 23.91 44.46 23.87
  Q 43.87 23.90 43.59 23.78
  Q 42.57 23.33 43.57 22.88
  Q 43.76 22.79 43.98 22.88
  Q 44.61 23.13 44.41 22.47
  Q 44.36 22.32 44.45 22.20
  A 0.04 0.04 0.0 0 0 44.42 22.13
  Q 41.65 22.20 38.90 20.93
  L 60.84 23.09
  Z"
    />
    <path fill="#1d82ad" d="
  M 64.26 25.90
  Q 63.32 24.07 62.40 22.19
  Q 62.30 21.97 62.32 21.69
  Q 62.35 21.10 62.68 21.59
  L 77.79 44.72
  Q 78.14 45.26 77.76 45.78
  L 76.29 47.82
  A 0.44 0.43 49.2 0 1 75.55 47.76
  Q 70.22 37.51 64.26 25.90
  Z"
    />
    <path fill="#1d82ad" d="
  M 37.72 21.87
  L 40.92 23.32
  A 0.16 0.16 0.0 0 1 40.95 23.59
  L 27.07 34.57
  A 0.16 0.16 0.0 0 1 26.86 34.55
  L 26.65 34.34
  A 0.16 0.16 0.0 0 1 26.65 34.12
  L 37.53 21.91
  A 0.16 0.16 0.0 0 1 37.72 21.87
  Z"
    />
    <path fill="#bee8f9" d="
  M 61.74 26.61
  Q 61.41 27.31 61.92 27.75
  L 45.18 23.88
  Q 44.96 24.30 44.46 23.87
  Q 44.61 23.91 44.74 23.87
  Q 45.02 23.80 44.93 23.52
  L 44.82 23.19
  Q 44.73 22.91 45.01 22.97
  L 61.74 26.61
  Z"
    />
    <path fill="#1d82ad" d="
  M 61.92 27.75
  L 62.02 30.76
  Q 62.04 31.31 61.53 31.10
  Q 53.65 27.83 45.76 24.54
  Q 45.18 24.30 45.18 23.88
  L 61.92 27.75
  Z"
    />
    <path fill="#1d82ad" d="
  M 46.37 25.64
  C 51.53 27.64 56.68 29.86 61.53 32.01
  Q 62.26 32.33 62.09 33.11
  L 61.62 35.19
  Q 61.45 35.97 60.78 35.53
  Q 53.59 30.66 46.23 26.06
  Q 46.07 25.96 46.08 25.77
  Q 46.08 25.72 46.12 25.68
  Q 46.23 25.58 46.37 25.64
  Z"
    />
    <path fill="#1d82ad" d="
  M 64.55 56.09
  Q 64.76 55.03 64.65 54.13
  Q 63.76 46.78 63.70 39.39
  Q 63.70 38.93 63.47 38.69
  Q 63.20 38.39 62.79 38.29
  Q 62.42 37.71 62.56 37.36
  Q 63.70 34.54 63.51 31.88
  C 63.38 29.94 63.94 28.31 63.36 26.40
  Q 63.28 26.15 63.51 26.03
  Q 63.56 26.01 63.61 26.01
  Q 63.74 26.02 63.80 26.13
  Q 64.57 27.67 65.13 29.43
  Q 65.17 29.55 65.23 29.65
  Q 65.37 29.88 65.58 29.92
  Q 65.78 29.96 65.87 30.14
  Q 70.38 39.48 74.82 48.16
  A 1.23 1.22 54.3 0 1 74.59 49.60
  L 73.15 50.99
  Q 72.45 51.68 72.11 50.76
  L 65.43 32.40
  Q 65.34 32.16 65.10 32.25
  L 64.84 32.34
  Q 64.66 32.41 64.73 32.58
  L 71.70 51.72
  Q 71.81 52.02 71.55 52.21
  L 69.06 54.02
  A 0.23 0.23 0.0 0 1 68.70 53.88
  Q 66.53 44.78 64.51 35.32
  Q 64.31 34.38 63.93 35.27
  Q 63.29 36.77 64.25 38.07
  Q 64.53 38.45 64.63 38.92
  L 67.85 53.90
  Q 67.95 54.34 67.66 54.68
  Q 66.47 56.14 64.55 56.09
  Z
  M 64.28 30.31
  Q 63.90 31.00 64.46 31.51
  Q 64.87 31.88 64.99 31.34
  Q 65.12 30.75 64.82 30.29
  Q 64.53 29.84 64.28 30.31
  Z"
    />
    <path fill="#ffffff" d="
  M 64.28 30.31
  Q 64.53 29.84 64.82 30.29
  Q 65.12 30.75 64.99 31.34
  Q 64.87 31.88 64.46 31.51
  Q 63.90 31.00 64.28 30.31
  Z"
    />
    <rect fill="#797979" x="-2.46" y="-12.32" transform="translate(101.59,45.68) rotate(0.1)" width="4.92"
          height="24.64" rx="0.51"/>
    <path fill="#797979" d="
  M 130.9965 53.2469
  A 4.72 4.72 0.0 0 1 126.2930 57.9834
  L 111.0731 58.0365
  A 4.72 4.72 0.0 0 1 106.3366 53.3330
  L 106.2835 38.1131
  A 4.72 4.72 0.0 0 1 110.9870 33.3766
  L 126.2069 33.3235
  A 4.72 4.72 0.0 0 1 130.9434 38.0270
  L 130.9965 53.2469
  Z
  M 126.03 38.71
  A 0.45 0.45 0.0 0 0 125.58 38.26
  L 111.68 38.26
  A 0.45 0.45 0.0 0 0 111.23 38.71
  L 111.23 52.61
  A 0.45 0.45 0.0 0 0 111.68 53.06
  L 125.58 53.06
  A 0.45 0.45 0.0 0 0 126.03 52.61
  L 126.03 38.71
  Z"
    />
    <path fill="#797979" d="
  M 139.55 43.30
  Q 146.37 43.16 153.70 43.30
  C 158.30 43.38 158.84 47.21 158.79 50.82
  C 158.73 54.55 158.13 58.12 153.38 58.02
  Q 145.93 57.88 139.55 58.00
  Q 133.32 58.12 134.10 51.62
  Q 134.15 51.19 134.57 51.09
  Q 137.81 50.32 139.15 52.46
  A 0.99 0.99 0.0 0 0 140.00 52.94
  L 152.73 53.04
  Q 153.75 53.05 153.75 52.02
  L 153.75 48.96
  A 0.93 0.93 0.0 0 0 152.80 48.03
  Q 145.35 48.21 138.51 47.99
  Q 134.41 47.86 134.13 43.86
  C 133.95 41.26 133.39 36.70 135.46 34.76
  C 137.02 33.30 139.31 33.35 141.46 33.33
  Q 146.96 33.27 152.71 33.34
  C 156.68 33.40 159.07 35.18 158.70 39.27
  A 1.12 1.11 -3.9 0 1 157.83 40.26
  Q 156.24 40.62 154.52 40.34
  Q 153.96 40.25 153.79 39.70
  L 153.51 38.79
  A 0.75 0.74 81.5 0 0 152.80 38.26
  L 139.57 38.23
  Q 138.87 38.23 138.87 38.93
  L 138.86 42.62
  Q 138.86 43.31 139.55 43.30
  Z"
    />
    <path fill="#797979" d="
  M 166.84 38.95
  L 166.79 52.53
  A 0.49 0.49 0.0 0 0 167.28 53.03
  L 185.97 53.16
  Q 186.51 53.17 186.51 53.72
  L 186.48 57.28
  A 0.72 0.72 0.0 0 1 185.76 57.99
  Q 176.11 58.01 167.07 57.98
  Q 162.01 57.96 161.95 52.94
  Q 161.86 44.99 161.97 38.44
  Q 162.05 33.41 167.13 33.36
  Q 176.53 33.29 185.85 33.35
  A 0.66 0.66 0.0 0 1 186.50 34.01
  L 186.52 37.74
  Q 186.52 38.25 186.01 38.25
  L 167.55 38.25
  Q 166.84 38.25 166.84 38.95
  Z"
    />
    <path fill="#797979" d="
  M 194.24 50.51
  L 194.29 57.48
  Q 194.29 58.00 193.77 58.00
  L 189.91 58.01
  Q 189.32 58.01 189.32 57.42
  L 189.31 34.34
  Q 189.30 33.36 190.28 33.36
  Q 199.10 33.34 209.13 33.48
  Q 213.58 33.55 213.88 37.84
  Q 214.11 41.21 213.98 44.86
  Q 213.82 49.07 209.50 49.70
  Q 208.39 49.86 209.16 50.69
  Q 211.85 53.54 213.93 56.60
  Q 214.88 58.00 213.18 58.01
  L 210.42 58.04
  A 3.77 3.77 0.0 0 1 207.49 56.67
  L 202.34 50.42
  A 1.87 1.86 70.0 0 0 200.91 49.75
  L 194.99 49.75
  Q 194.23 49.75 194.24 50.51
  Z
  M 209.0254 38.9271
  A 0.67 0.67 0.0 0 0 208.3542 38.2583
  L 194.9142 38.2817
  A 0.67 0.67 0.0 0 0 194.2454 38.9529
  L 194.2546 44.2329
  A 0.67 0.67 0.0 0 0 194.9258 44.9017
  L 208.3658 44.8783
  A 0.67 0.67 0.0 0 0 209.0346 44.2071
  L 209.0254 38.9271
  Z"
    />
    <path fill="#797979" d="
  M 222.03 50.76
  L 222.01 57.38
  Q 222.01 58.03 221.36 58.03
  L 217.82 57.99
  Q 217.15 57.98 217.15 57.32
  L 217.08 34.23
  Q 217.08 33.37 217.94 33.36
  Q 228.01 33.24 236.94 33.36
  Q 241.09 33.42 241.66 37.22
  Q 242.19 40.74 241.76 45.01
  Q 241.28 49.74 236.45 49.73
  Q 229.36 49.71 222.90 49.87
  A 0.89 0.89 0.0 0 0 222.03 50.76
  Z
  M 236.9876 39.0724
  A 0.71 0.71 0.0 0 0 236.2826 38.3574
  L 222.7229 38.2627
  A 0.71 0.71 0.0 0 0 222.0080 38.9678
  L 221.9724 44.0676
  A 0.71 0.71 0.0 0 0 222.6774 44.7826
  L 236.2371 44.8773
  A 0.71 0.71 0.0 0 0 236.9520 44.1722
  L 236.9876 39.0724
  Z"
    />
    <path fill="#797979" d="
  M 251.84 38.34
  L 243.36 38.41
  A 0.68 0.68 0.0 0 1 242.67 37.75
  L 242.53 33.97
  A 0.68 0.68 0.0 0 1 243.21 33.26
  L 266.73 33.32
  A 0.68 0.68 0.0 0 1 267.41 33.99
  L 267.48 37.65
  A 0.68 0.68 0.0 0 1 266.79 38.34
  L 258.20 38.24
  A 0.68 0.68 0.0 0 0 257.51 38.92
  L 257.53 57.31
  A 0.68 0.68 0.0 0 1 256.85 57.99
  L 253.23 58.02
  A 0.68 0.68 0.0 0 1 252.55 57.34
  L 252.52 39.02
  A 0.68 0.68 0.0 0 0 251.84 38.34
  Z"
    />
    <rect fill="#797979" x="269.38" y="33.33" width="4.96" height="24.66" rx="0.61"/>
    <path fill="#797979" d="
  M 301.2666 53.2769
  A 4.68 4.68 0.0 0 1 296.6030 57.9732
  L 281.3031 58.0266
  A 4.68 4.68 0.0 0 1 276.6068 53.3630
  L 276.5534 38.0631
  A 4.68 4.68 0.0 0 1 281.2170 33.3668
  L 296.5169 33.3134
  A 4.68 4.68 0.0 0 1 301.2132 37.9770
  L 301.2666 53.2769
  Z
  M 296.2618 38.9429
  A 0.67 0.67 0.0 0 0 295.5929 38.2717
  L 282.1929 38.2483
  A 0.67 0.67 0.0 0 0 281.5218 38.9171
  L 281.4982 52.3971
  A 0.67 0.67 0.0 0 0 282.1671 53.0683
  L 295.5671 53.0917
  A 0.67 0.67 0.0 0 0 296.2382 52.4229
  L 296.2618 38.9429
  Z"
    />
    <path fill="#797979" d="
  M 323.75 49.85
  Q 324.04 49.79 324.03 49.53
  Q 324.00 41.71 324.01 34.20
  Q 324.01 33.24 324.97 33.26
  L 328.43 33.31
  Q 329.04 33.32 329.04 33.93
  L 329.02 57.31
  Q 329.02 58.02 328.31 58.01
  L 324.46 58.00
  A 1.77 1.76 70.2 0 1 323.10 57.36
  L 309.91 41.54
  Q 309.27 40.77 309.27 41.77
  L 309.31 57.48
  Q 309.31 58.02 308.77 58.02
  L 305.02 57.99
  Q 304.31 57.98 304.31 57.27
  L 304.40 34.00
  Q 304.40 33.39 305.00 33.38
  L 309.14 33.32
  Q 309.72 33.31 310.09 33.75
  L 323.41 49.73
  A 0.36 0.34 -24.4 0 0 323.75 49.85
  Z"
    />
    <path fill="#797979" d="
  M 351.19 48.19
  Q 344.62 48.10 337.45 48.09
  Q 332.65 48.08 332.31 43.58
  C 332.00 39.46 331.28 33.36 337.33 33.41
  Q 344.29 33.46 351.04 33.32
  Q 357.43 33.19 356.90 39.61
  Q 356.86 40.11 356.38 40.21
  Q 354.75 40.56 353.14 40.42
  Q 351.87 40.31 351.90 38.97
  Q 351.91 38.25 351.20 38.25
  L 337.75 38.21
  A 0.66 0.66 0.0 0 0 337.09 38.88
  L 337.15 42.48
  Q 337.17 43.27 337.96 43.26
  Q 345.35 43.18 352.22 43.28
  C 354.72 43.31 356.47 44.96 356.77 47.41
  C 357.22 50.98 357.78 58.10 352.17 58.03
  Q 344.73 57.95 337.49 58.03
  C 333.66 58.06 331.88 55.46 332.29 51.60
  Q 332.35 50.98 332.98 50.99
  L 335.93 51.02
  A 1.02 1.00 -7.7 0 1 336.89 51.74
  Q 337.25 52.93 338.49 52.96
  Q 344.77 53.09 351.10 53.09
  Q 352.01 53.09 352.01 52.17
  L 352.01 49.03
  Q 352.01 48.20 351.19 48.19
  Z"
    />
    <path fill="#bee8f9" d="
  M 62.79 38.29
  Q 63.20 38.39 63.47 38.69
  Q 63.70 38.93 63.70 39.39
  Q 63.76 46.78 64.65 54.13
  Q 64.76 55.03 64.55 56.09
  Q 64.47 55.63 63.96 56.10
  L 62.96 39.08
  Q 62.95 38.89 62.76 38.88
  Q 62.65 38.88 62.53 38.99
  L 62.79 38.29
  Z"
    />
    <rect fill="#ffffff" x="111.23" y="38.26" width="14.80" height="14.80" rx="0.45"/>
    <rect fill="#ffffff" x="-7.39" y="-3.31" transform="translate(201.64,41.58) rotate(-0.1)" width="14.78"
          height="6.62" rx="0.67"/>
    <rect fill="#ffffff" x="-7.49" y="-3.26" transform="translate(229.48,41.57) rotate(0.4)" width="14.98" height="6.52"
          rx="0.71"/>
    <rect fill="#ffffff" x="-7.37" y="-7.41" transform="translate(288.88,45.67) rotate(0.1)" width="14.74"
          height="14.82" rx="0.67"/>
    <path fill="#1b638c" d="
  M 29.32 56.55
  C 26.44 51.77 23.40 47.07 20.71 42.36
  Q 20.21 41.49 20.90 40.74
  Q 20.96 40.67 22.10 39.44
  Q 22.78 38.70 23.14 39.64
  Q 26.28 48.08 29.53 56.27
  Q 29.58 56.39 29.54 56.50
  Q 29.52 56.55 29.48 56.58
  Q 29.38 56.66 29.32 56.55
  Z"
    />
    <path fill="#1b638c" d="
  M 62.53 38.99
  Q 62.65 38.88 62.76 38.88
  Q 62.95 38.89 62.96 39.08
  L 63.96 56.10
  Q 63.12 57.58 61.00 57.95
  Q 60.49 58.03 60.52 57.52
  Q 61.04 49.15 61.90 40.86
  Q 62.01 39.79 62.53 38.99
  Z"
    />
    <path fill="#1b638c" d="
  M 61.08 42.07
  L 59.55 58.20
  A 0.15 0.15 0.0 0 1 59.43 58.33
  L 56.06 59.02
  A 0.15 0.15 0.0 0 1 55.88 58.83
  L 60.50 41.94
  A 0.15 0.15 0.0 0 1 60.68 41.84
  L 60.97 41.91
  A 0.15 0.15 0.0 0 1 61.08 42.07
  Z"
    />
    <path fill="#1b638c" d="
  M 29.40 60.51
  Q 29.58 60.73 29.80 60.54
  L 30.03 60.34
  Q 30.19 60.20 30.05 60.03
  Q 23.71 52.62 17.84 45.58
  Q 17.63 45.33 17.80 45.04
  L 19.45 42.32
  A 0.18 0.18 0.0 0 1 19.76 42.32
  Q 24.03 49.07 27.55 55.42
  C 28.22 56.63 29.13 57.65 29.92 58.77
  Q 30.29 59.29 30.17 59.91
  Q 29.78 62.03 32.12 63.35
  A 0.24 0.24 0.0 0 1 32.00 63.80
  Q 31.49 63.79 31.00 63.33
  Q 24.24 56.97 16.13 49.98
  Q 15.50 49.44 15.89 48.70
  L 16.94 46.72
  Q 17.30 46.03 17.80 46.63
  L 29.40 60.51
  Z"
    />
    <path fill="#1b638c" d="
  M 32.99 66.98
  Q 32.95 66.08 32.22 65.76
  Q 31.21 65.32 31.15 65.28
  Q 22.78 59.74 14.27 53.96
  Q 14.07 53.82 14.14 53.59
  L 15.14 50.43
  A 0.20 0.20 0.0 0 1 15.46 50.34
  Q 22.57 56.44 30.02 63.36
  C 31.33 64.57 32.80 65.06 33.85 66.62
  Q 34.31 67.32 33.51 67.11
  L 32.99 66.98
  Z"
    />
    <path fill="#1d82ad" d="
  M 64.77 60.39
  C 66.38 58.89 67.98 56.46 69.92 55.07
  Q 71.02 54.28 70.16 55.33
  L 52.69 76.78
  A 1.05 1.05 0.0 0 1 51.43 77.06
  L 49.58 76.18
  Q 48.91 75.87 49.43 75.34
  Q 56.69 67.89 64.77 60.39
  Z"
    />
    <path fill="#1b638c" d="
  M 32.99 66.98
  Q 33.16 67.97 34.02 67.91
  Q 34.59 67.87 34.98 68.30
  L 35.53 68.90
  Q 36.80 70.30 35.11 69.44
  L 13.99 58.76
  Q 13.21 58.36 13.33 57.50
  L 13.64 55.25
  Q 13.75 54.47 14.40 54.91
  Q 23.19 60.79 32.24 66.96
  Q 32.51 67.15 32.99 66.98
  Z"
    />
    <path fill="#1d82ad" d="
  M 65.33 58.35
  C 64.51 59.88 62.91 60.89 61.66 62.13
  Q 55.28 68.44 48.66 75.05
  Q 47.97 75.74 47.06 75.39
  L 45.29 74.71
  Q 44.12 74.26 45.12 73.49
  Q 52.20 68.09 60.83 61.29
  Q 62.95 59.63 64.91 58.01
  Q 65.98 57.12 65.33 58.35
  Z"
    />
    <path fill="#1d82ad" d="
  M 57.49 62.90
  Q 57.53 62.23 56.55 62.27
  L 62.05 58.78
  Q 62.53 58.48 62.34 59.01
  Q 62.21 59.38 62.05 59.52
  Q 60.75 60.72 57.49 62.90
  Z"
    />
    <path fill="#1b638c" d="
  M 36.06 70.88
  Q 35.76 71.29 34.98 71.00
  Q 24.19 67.03 13.74 63.38
  A 1.24 1.24 0.0 0 1 12.91 62.21
  L 12.90 59.82
  Q 12.89 58.92 13.69 59.33
  L 36.06 70.88
  Z"
    />
    <path fill="#1b638c" d="
  M 54.41 61.03
  Q 53.48 60.80 52.65 61.08
  A 0.07 0.05 -13.3 0 1 52.57 61.04
  L 52.51 60.75
  Q 52.41 60.26 52.91 60.25
  Q 53.81 60.24 54.58 60.67
  Q 55.12 60.96 55.70 60.78
  L 58.38 59.95
  Q 58.49 59.91 58.51 59.80
  Q 58.55 59.63 58.67 59.59
  Q 58.96 59.50 58.78 59.74
  Q 57.97 60.81 56.54 61.42
  Q 55.48 61.87 54.47 62.47
  Q 47.17 66.77 40.22 70.78
  Q 39.99 70.91 39.78 70.74
  L 37.09 68.62
  A 0.19 0.19 0.0 0 1 37.14 68.29
  L 54.44 61.46
  A 0.23 0.23 0.0 0 0 54.41 61.03
  Z"
    />
    <path fill="#1b638c" d="
  M 49.32 61.31
  L 49.25 60.99
  A 0.32 0.32 0.0 0 0 48.87 60.75
  L 34.77 63.91
  Q 33.86 64.12 33.37 63.33
  L 32.32 61.65
  Q 31.77 60.79 32.79 60.74
  L 48.49 59.97
  Q 49.08 59.94 49.53 60.32
  Q 50.45 61.09 51.79 60.94
  Q 52.27 60.88 52.13 61.35
  L 52.03 61.67
  A 0.28 0.28 0.0 0 1 51.76 61.87
  C 50.15 61.84 49.16 62.86 47.75 63.38
  Q 43.01 65.11 38.22 67.21
  Q 36.88 67.79 35.83 66.77
  L 34.88 65.85
  Q 33.80 64.81 35.27 64.49
  L 49.22 61.47
  Q 49.35 61.44 49.32 61.31
  Z"
    />
    <path fill="#1b638c" d="
  M 56.55 62.27
  Q 57.53 62.23 57.49 62.90
  L 44.35 73.15
  Q 43.64 73.70 42.88 73.22
  L 41.13 72.10
  A 0.62 0.62 0.0 0 1 41.16 71.04
  L 56.55 62.27
  Z"
    />
    <path fill="#bee8f9" d="
  M 36.06 70.88
  Q 36.41 71.01 36.58 70.82
  Q 37.22 70.07 37.80 70.86
  L 38.06 71.21
  Q 38.59 71.93 37.70 71.88
  Q 36.35 71.81 36.06 70.88
  Z"
    />
</svg>
