<?xml version="1.0" standalone="no"?>
<!DOCTYPE svg PUBLIC "-//W3C//DTD SVG 20010904//EN"
        "http://www.w3.org/TR/2001/REC-SVG-20010904/DTD/svg10.dtd">
<svg version="1.0" xmlns="http://www.w3.org/2000/svg"
     width="370.000000pt" height="89.000000pt" viewBox="0 0 370.000000 89.000000"
     preserveAspectRatio="xMidYMid meet">

    <g transform="translate(0.000000,89.000000) scale(0.100000,-0.100000)"
       fill="#000000" stroke="none">
        <path d="M442 752 c-51 -14 -91 -26 -90 -28 2 -1 51 5 110 14 87 13 105 18 97
29 -7 7 -14 12 -18 12 -3 -1 -48 -13 -99 -27z"/>
        <path d="M470 725 l-75 -12 93 -2 c76 -1 92 2 92 14 0 17 -7 17 -110 0z"/>
        <path d="M445 690 c49 -14 156 -18 152 -6 -2 7 -40 12 -93 13 -63 1 -80 -1
-59 -7z"/>
        <path d="M195 668 c-9 -43 -25 -142 -24 -152 1 -16 18 31 39 107 16 56 16 67
5 67 -8 0 -17 -10 -20 -22z"/>
        <path d="M222 616 c-29 -98 -27 -104 8 -29 40 87 44 103 27 103 -9 0 -22 -27
-35 -74z"/>
        <path d="M263 634 c-14 -30 -23 -57 -21 -60 6 -5 68 93 68 107 0 26 -24 2 -47
-47z"/>
        <path d="M157 673 c-3 -5 -7 -57 -11 -118 -3 -60 -4 -105 -1 -100 4 10 35 197
35 215 0 12 -17 14 -23 3z"/>
        <path d="M290 613 l-41 -68 54 60 c50 55 60 75 38 75 -5 0 -28 -30 -51 -67z"/>
        <path d="M529 649 c70 -19 96 -19 75 0 -5 5 -40 11 -79 14 l-70 6 74 -20z"/>
        <path d="M340 625 c-43 -45 -27 -45 25 0 24 21 34 35 24 35 -8 0 -30 -16 -49
-35z"/>
        <path d="M558 609 c24 -11 46 -18 50 -15 11 11 -13 24 -53 30 l-40 6 43 -21z"/>
        <path d="M650 628 c0 -18 109 -208 114 -199 4 6 2 20 -5 32 -16 31 -109 173
-109 167z"/>
        <path d="M530 596 c0 -2 18 -15 40 -30 31 -20 40 -23 40 -11 0 8 -2 15 -4 15
-2 0 -20 7 -40 15 -20 8 -36 14 -36 11z"/>
        <path d="M666 543 c9 -21 25 -64 37 -95 12 -32 25 -58 29 -58 15 0 8 23 -33
106 -41 85 -63 115 -33 47z"/>
        <path d="M1000 431 c0 -67 3 -121 8 -121 23 1 28 23 28 125 -1 96 -3 110 -18
113 -16 3 -18 -8 -18 -117z"/>
        <path d="M1080 531 c-11 -21 -14 -151 -4 -188 4 -13 11 -20 20 -16 8 3 14 0
14 -6 0 -12 118 -15 157 -5 30 8 47 70 40 147 -7 83 -13 87 -123 87 -82 0 -95
-2 -104 -19z m180 -21 c1 -3 2 -39 3 -80 l2 -75 -50 -5 c-28 -3 -63 -3 -79 0
-27 5 -28 6 -28 80 0 41 1 77 1 80 1 3 35 5 76 5 41 0 75 -2 75 -5z"/>
        <path d="M1359 529 c-17 -17 -20 -29 -15 -58 8 -51 27 -61 117 -61 69 0 77 -2
82 -21 3 -12 2 -31 -3 -42 -5 -12 -9 -16 -9 -9 -1 10 -18 13 -71 10 -57 -2
-71 0 -75 13 -7 22 -35 20 -35 -2 0 -10 11 -26 25 -35 33 -21 181 -17 195 6
14 22 12 97 -2 107 -7 4 -51 10 -98 13 l-85 5 0 29 0 29 80 -2 c44 -1 82 -7
83 -12 6 -16 32 -9 32 9 0 34 -21 42 -112 42 -76 0 -91 -3 -109 -21z"/>
        <path d="M1637 532 c-22 -24 -22 -153 0 -195 l14 -28 102 3 c86 3 102 6 105
20 3 14 -8 16 -88 16 -51 0 -96 4 -101 9 -6 6 -9 43 -7 83 l3 73 95 1 c77 1
95 4 95 16 0 12 -19 16 -101 18 -88 2 -102 0 -117 -16z"/>
        <path d="M1900 530 c0 -11 6 -20 13 -20 9 0 9 -2 0 -8 -8 -5 -12 -38 -12 -98
0 -73 3 -91 15 -91 14 0 27 32 24 58 -5 32 0 36 43 29 34 -5 52 -15 82 -48 38
-43 58 -51 71 -30 5 8 2 9 -12 4 -10 -4 -15 -4 -11 0 3 4 -2 19 -13 34 -25 35
-25 37 4 44 39 10 50 92 16 126 -17 17 -33 20 -120 20 -93 0 -100 -1 -100 -20z
m133 3 c-13 -2 -35 -2 -50 0 -16 2 -5 4 22 4 28 0 40 -2 28 -4z m62 -58 l0
-39 -80 0 -80 1 -3 33 c-2 18 1 36 6 39 6 3 43 6 84 6 l73 0 0 -40z"/>
        <path d="M2181 429 c-2 -111 0 -120 16 -117 13 2 18 14 20 38 1 19 2 40 2 45
1 6 33 9 82 7 49 -2 85 1 94 8 8 6 13 33 14 65 0 70 -9 75 -132 75 l-95 0 -1
-121z m193 103 c3 -5 -8 -6 -25 -4 -16 2 -29 6 -29 8 0 8 49 4 54 -4z m-8 -26
c6 -2 9 -18 6 -35 -4 -30 -5 -31 -63 -32 -33 -1 -66 -2 -76 -3 -13 -1 -16 7
-15 37 0 20 1 38 1 40 1 3 135 -3 147 -7z"/>
        <path d="M2430 536 c0 -17 22 -26 66 -26 l34 0 0 -100 c0 -55 3 -100 8 -100
28 1 34 20 31 109 l-4 91 35 1 c60 2 65 4 65 19 0 12 -21 16 -117 18 -97 2
-118 0 -118 -12z"/>
        <path d="M2707 543 c-4 -3 -7 -55 -7 -114 0 -83 3 -108 14 -112 21 -8 26 14
26 113 0 107 -9 138 -33 113z"/>
        <path d="M2787 536 c-15 -12 -18 -27 -16 -95 2 -69 4 -81 18 -79 12 3 17 20
21 78 4 64 8 75 23 74 9 -1 44 -2 77 -3 l60 -1 0 -69 c0 -99 3 -97 -89 -91
-107 7 -119 4 -89 -22 20 -17 34 -19 104 -16 55 2 85 8 95 18 10 10 16 42 18
98 4 115 -4 122 -118 122 -57 -1 -92 -5 -104 -14z"/>
        <path d="M3050 435 c0 -63 2 -115 4 -115 2 0 12 -3 21 -6 9 -4 15 -3 14 2 -1
5 -1 47 0 94 l1 85 40 -45 c22 -25 54 -64 72 -87 18 -23 39 -40 46 -38 7 3 10
0 7 -5 -3 -6 0 -10 8 -10 23 0 28 26 26 137 -1 94 -3 103 -20 103 -17 0 -19
-8 -19 -78 0 -43 -3 -82 -7 -85 -6 -7 -48 37 -110 116 -25 32 -45 47 -60 47
-23 0 -23 -2 -23 -115z m105 15 l20 -25 -22 19 c-13 11 -23 24 -23 29 0 6 1 8
3 6 1 -2 11 -15 22 -29z m55 -61 c15 -28 5 -23 -15 7 -9 15 -12 23 -6 20 6 -4
16 -16 21 -27z"/>
        <path d="M3347 538 c-12 -6 -17 -23 -17 -57 0 -58 14 -67 115 -70 38 -1 71 -4
72 -5 2 -1 4 -13 5 -27 3 -23 0 -24 -52 -27 -30 -2 -61 -9 -69 -15 -12 -9 -13
-9 -7 1 4 7 1 12 -9 12 -8 0 -18 6 -21 13 -8 22 -34 16 -34 -8 0 -31 38 -45
124 -45 84 0 106 14 106 71 0 59 -14 68 -110 71 l-85 3 0 28 0 29 78 1 c42 1
78 -2 80 -7 2 -5 11 -10 20 -12 24 -3 22 33 -3 46 -24 13 -170 11 -193 -2z"/>
        <path d="M664 468 c16 -78 28 -110 38 -100 7 7 3 29 -12 71 -25 66 -36 80 -26
29z"/>
        <path d="M210 478 c0 -12 48 -98 55 -98 4 0 -8 42 -24 83 -10 27 -31 37 -31
15z"/>
        <path d="M641 465 c-2 -52 11 -135 20 -129 12 7 10 49 -6 109 -10 41 -13 45
-14 20z"/>
        <path d="M616 407 c-8 -71 -5 -99 9 -85 3 3 5 41 3 84 l-3 79 -9 -78z"/>
        <path d="M186 452 c-7 -12 35 -74 70 -103 13 -10 11 -2 -7 27 -46 77 -55 88
-63 76z"/>
        <path d="M164 408 c-4 -6 17 -32 52 -64 32 -29 53 -53 45 -54 -11 0 -11 -3 -1
-15 21 -25 2 -17 -61 25 -49 34 -59 38 -59 23 0 -13 23 -30 77 -57 51 -25 72
-32 62 -20 -13 16 -12 17 5 11 16 -7 17 -5 5 9 -7 9 -14 22 -15 30 -2 12 -92
124 -100 124 -1 0 -6 -5 -10 -12z"/>
        <path d="M577 363 c-8 -32 -14 -59 -13 -61 2 -2 11 4 20 13 13 14 25 105 13
105 -2 0 -11 -26 -20 -57z"/>
        <path d="M147 368 c-3 -12 81 -78 100 -78 4 0 -13 20 -37 45 -47 48 -56 52
-63 33z"/>
        <path d="M130 276 c0 -8 32 -25 78 -41 113 -41 115 -41 22 9 -95 50 -100 52
-100 32z"/>
        <path d="M388 283 c-53 -4 -67 -10 -53 -25 8 -8 97 10 109 22 6 6 8 9 6 8 -3
-1 -31 -3 -62 -5z"/>
        <path d="M540 220 c-76 -61 -93 -80 -68 -80 7 0 44 32 83 70 38 39 67 70 65
69 -3 0 -39 -27 -80 -59z"/>
        <path d="M415 258 c-66 -16 -69 -18 -58 -29 8 -8 29 -4 72 11 34 13 61 24 61
26 0 6 -32 3 -75 -8z"/>
        <path d="M456 239 c-80 -34 -84 -37 -64 -44 8 -3 46 12 84 34 81 48 75 50 -20
10z"/>
        <path d="M482 216 c-53 -31 -69 -45 -58 -49 11 -4 38 10 76 40 52 40 68 54 58
53 -2 -1 -36 -20 -76 -44z"/>
        <path d="M561 196 c-35 -35 -58 -66 -53 -70 6 -3 29 18 53 46 24 29 49 61 57
71 32 37 4 14 -57 -47z"/>
    </g>
</svg>
