<svg width="150" height="150" viewBox="0 0 150 150" xmlns="http://www.w3.org/2000/svg" fill="none">

    <g>
        <path stroke="null" id="svg_1" fill="#000000"
              d="m74.86163,0.35975c-14.77425,0 -29.21765,4.37836 -41.50235,12.58143c-12.2847,8.20307 -21.85948,19.86243 -27.51351,33.50367c-5.65403,13.64087 -7.13342,28.65191 -4.25103,43.13292c2.88239,14.48194 9.99713,27.78341 20.44443,38.2247c10.4473,10.44036 23.75794,17.55021 38.24898,20.43092c14.49038,2.88071 29.51114,1.40163 43.16112,-4.24874c13.64998,-5.65037 25.31661,-15.21821 33.52546,-27.49506c8.20791,-12.27685 12.5892,-26.71026 12.5892,-41.47588c0,-19.79945 -7.87082,-38.78796 -21.87937,-52.78829c-14.00948,-14.00042 -33.01094,-21.86568 -52.82293,-21.86568zm36.6975,51.13797l-12.2325,57.76351c-0.93378,4.10597 -3.3616,5.03914 -6.81658,3.17279l-18.67557,-13.81098l-9.33779,8.67852c-0.43981,0.5739 -1.00475,1.04049 -1.65185,1.3643c-0.64711,0.32288 -1.35958,0.49458 -2.08326,0.50205l1.30729,-18.66349l34.54981,-31.26135c1.58742,-1.30644 0,-2.05298 -2.24107,-0.74654l-42.39355,26.59548l-18.67557,-5.78568c-4.01525,-1.21313 -4.10863,-4.01265 0.8404,-5.879l71.99434,-27.99524c3.54836,-1.02649 6.53645,1.02649 5.41592,6.06563z"/>
    </g>
</svg>
