<svg width="925" height="925" xmlns="http://www.w3.org/2000/svg" version="1.1" viewBox="0.00 0.00 925.00 925.00">

    <g>
        <path id="svg_6"
              d="m918.14988,460.95143a455.65,455.65 0 0 1 -455.65,455.65a455.65,455.65 0 0 1 -455.65,-455.65a455.65,455.65 0 0 1 455.65,-455.65a455.65,455.65 0 0 1 455.65,455.65zm-425.37,-73.44a0.34,0.34 0 0 1 -0.52,-0.03l-142.59,-190.62a0.34,0.34 0 0 0 -0.27,-0.14l-167.16,0a0.34,0.34 0 0 0 -0.27,0.54l217.43,290.71a0.34,0.34 0 0 1 -0.02,0.44l-218.67,236.22a0.34,0.34 0 0 0 0.25,0.57l48.44,0a0.34,0.34 0 0 0 0.25,-0.11l191.7,-207.09a0.34,0.34 0 0 1 0.52,0.03l154.85,207.03a0.34,0.34 0 0 0 0.27,0.14l167.16,0a0.34,0.34 0 0 0 0.27,-0.54l-229.7,-307.11a0.34,0.34 0 0 1 0.02,-0.44l203.49,-219.82a0.34,0.34 0 0 0 -0.25,-0.57l-48.45,-0.01a0.34,0.34 0 0 0 -0.25,0.11l-176.5,190.69z"
              fill="#100f0d"/>
        <path id="svg_7"
              d="m492.77988,387.51143l176.5,-190.69a0.34,0.34 0 0 1 0.25,-0.11l48.45,0.01a0.34,0.34 0 0 1 0.25,0.57l-203.49,219.82a0.34,0.34 0 0 0 -0.02,0.44l229.7,307.11a0.34,0.34 0 0 1 -0.27,0.54l-167.16,0a0.34,0.34 0 0 1 -0.27,-0.14l-154.85,-207.03a0.34,0.34 0 0 0 -0.52,-0.03l-191.7,207.09a0.34,0.34 0 0 1 -0.25,0.11l-48.44,0a0.34,0.34 0 0 1 -0.25,-0.57l218.67,-236.22a0.34,0.34 0 0 0 0.02,-0.44l-217.43,-290.71a0.34,0.34 0 0 1 0.27,-0.54l167.16,0a0.34,0.34 0 0 1 0.27,0.14l142.59,190.62a0.34,0.34 0 0 0 0.52,0.03zm-161.36,-154.34a0.34,0.34 0 0 0 -0.27,-0.14l-76.34,0a0.34,0.34 0 0 0 -0.27,0.54l340.42,455.17a0.34,0.34 0 0 0 0.27,0.14l76.34,0a0.34,0.34 0 0 0 0.27,-0.54l-340.42,-455.17z"
              fill="#ffffff"/>
        <path id="svg_8"
              d="m331.41988,233.17143l340.42,455.17a0.34,0.34 0 0 1 -0.27,0.54l-76.34,0a0.34,0.34 0 0 1 -0.27,-0.14l-340.42,-455.17a0.34,0.34 0 0 1 0.27,-0.54l76.34,0a0.34,0.34 0 0 1 0.27,0.14z"
              fill="#100f0d"/>
    </g>
</svg>
