<svg viewBox="0 0 48 48" xmlns="http://www.w3.org/2000/svg"><g fill="none" stroke="#000" stroke-linecap="round" stroke-linejoin="round"><path d="m21.9486 9.5794c7.7383 0 20.3972 5.1308 20.3972 14.0888 0 8.1168-18.5047 13.1215-25.0654 13.1215s-12.785-2.986-12.785-10.3879 6.7289-16.8224 17.4532-16.8224z"/><path d="m4.4953 26.4019c0 9.9252 2.8178 13.4159 10.1355 13.4159s20.7336-6.5748 25.9045-11.8561"/><path d="m11.1352 13.4c5.5564-4.6056 8.8788-5.3346 14.2199-5.3346 6.4346 0 18.3364 3.9533 18.3364 12.7009 0 4.6822-3.1563 7.1953-3.1563 7.1953"/><path d="m24.7792 27.3417v-7.4591h2.442c1.3805 0 2.4997 1.1216 2.4997 2.5051s-1.1191 2.5051-2.4997 2.5051h-2.442"/><path d="m10.7935 19.8826v7.4591"/><path d="m15.7351 19.8826v7.4591"/><path d="m10.7935 23.5981h4.9416"/><path d="m22.8091 19.8826-2.4709 3.7296-2.4708-3.7296"/><path d="m20.3382 27.3417v-3.7295"/><path d="m31.691 27.3417h3.7296"/><path d="m31.691 19.8826h3.7296"/><path d="m31.691 23.6122h2.4316"/><path d="m31.691 19.8826v7.4591"/></g></svg>