<svg width="150" height="41" viewBox="0 0 358 61" fill="none" xmlns="http://www.w3.org/2000/svg">
<path d="M346.896 43.4505C345.774 43.4505 344.664 43.2798 343.567 42.9384C342.494 42.5726 341.506 42.0848 340.604 41.4751C339.701 40.8655 338.945 40.1948 338.336 39.4632L341.884 36.4635C342.518 37.2195 343.311 37.817 344.262 38.256C345.237 38.695 346.152 38.9145 347.005 38.9145C347.81 38.9145 348.554 38.7559 349.237 38.4389C349.944 38.0975 350.517 37.6585 350.956 37.122C351.395 36.5611 351.651 35.9514 351.724 35.2929C351.822 34.5857 351.639 33.976 351.176 33.4638C350.712 32.9273 350.103 32.5371 349.346 32.2932C347.225 31.7079 345.42 31.086 343.932 30.4276C342.469 29.7691 341.433 28.8912 340.823 27.7937C340.213 26.6963 340.116 25.2208 340.53 23.3674C341.043 21.2944 342.116 19.758 343.75 18.7581C345.384 17.7582 347.261 17.2583 349.383 17.2583C350.724 17.2583 352.078 17.4778 353.444 17.9168C354.834 18.3314 356.175 19.002 357.468 19.9287L354.102 23.0382C353.419 22.648 352.688 22.3309 351.907 22.087C351.151 21.8188 350.346 21.6724 349.493 21.6481C348.786 21.6237 348.091 21.709 347.408 21.9041C346.749 22.0748 346.176 22.3675 345.688 22.7821C345.225 23.1967 344.932 23.7332 344.81 24.3917C344.713 25.0501 344.823 25.5623 345.14 25.9281C345.457 26.2939 345.932 26.5987 346.566 26.8426C347.225 27.0621 347.981 27.3304 348.834 27.6474C350.517 28.1108 351.932 28.6473 353.078 29.257C354.248 29.8667 355.09 30.6837 355.602 31.7079C356.138 32.7078 356.297 34.0491 356.077 35.7319C355.907 37.1707 355.382 38.4755 354.504 39.6461C353.627 40.8167 352.517 41.7434 351.176 42.4263C349.859 43.1091 348.432 43.4505 346.896 43.4505Z" fill="#F0FF00"/>
<path d="M334.429 43.085H328.832L322.211 23.1847L319.723 43.0484H315.334L318.48 17.478H324.479L330.771 36.9759L333.185 17.478H337.575L334.429 43.085Z" fill="#F0FF00"/>
<path d="M313.371 30.5739C313.152 32.3542 312.627 34.0126 311.798 35.549C310.969 37.0854 309.92 38.4389 308.652 39.6095C307.384 40.7558 305.97 41.6581 304.409 42.3166C302.848 42.9506 301.214 43.2677 299.507 43.2677C297.727 43.2677 296.105 42.9262 294.642 42.2434C293.203 41.5605 291.971 40.6094 290.947 39.3901C289.947 38.1707 289.215 36.7684 288.752 35.1832C288.289 33.598 288.167 31.9153 288.386 30.135C288.606 28.3791 289.13 26.7329 289.959 25.1965C290.813 23.6357 291.874 22.27 293.142 21.0994C294.434 19.9044 295.861 18.9777 297.422 18.3192C299.007 17.6363 300.641 17.2949 302.324 17.2949C304.055 17.2949 305.64 17.6485 307.079 18.3558C308.542 19.0386 309.774 19.9897 310.774 21.2091C311.798 22.4285 312.542 23.843 313.005 25.4526C313.469 27.0621 313.591 28.7693 313.371 30.5739ZM308.908 30.135C309.103 28.5742 308.92 27.1475 308.36 25.855C307.823 24.5624 307.006 23.5381 305.909 22.7821C304.836 22.0017 303.592 21.6115 302.177 21.6115C301.055 21.6115 299.958 21.8554 298.885 22.3431C297.836 22.8065 296.885 23.465 296.032 24.3185C295.178 25.1477 294.471 26.0988 293.91 27.1719C293.349 28.2449 292.995 29.379 292.849 30.5739C292.678 32.1104 292.861 33.5126 293.398 34.7808C293.959 36.049 294.788 37.061 295.885 37.8171C296.983 38.5731 298.239 38.9511 299.653 38.9511C301.165 38.9511 302.592 38.5487 303.933 37.7439C305.274 36.9391 306.384 35.866 307.262 34.5247C308.164 33.1834 308.713 31.7202 308.908 30.135Z" fill="#F0FF00"/>
<path d="M283.249 43.085H278.859L282.005 17.478H286.395L283.249 43.085Z" fill="#F0FF00"/>
<path d="M278.177 21.502H270.934L268.263 43.085H263.873L266.544 21.502H259.301L259.776 17.478H278.652L278.177 21.502Z" fill="#F0FF00"/>
<path d="M238.026 43.085L241.208 17.478H250.683C252.024 17.478 253.146 17.8682 254.048 18.6486C254.975 19.4046 255.646 20.3923 256.06 21.6117C256.475 22.8311 256.597 24.1236 256.426 25.4893C256.329 26.4161 256.048 27.3306 255.585 28.2329C255.146 29.1353 254.573 29.9523 253.865 30.6839C253.183 31.4155 252.402 32.0008 251.524 32.4398C250.671 32.8788 249.768 33.0983 248.817 33.0983H243.659L242.415 43.085H238.026ZM244.171 28.7817H249C249.463 28.7817 249.915 28.6109 250.354 28.2695C250.817 27.9037 251.219 27.4403 251.561 26.8794C251.902 26.2941 252.109 25.6844 252.183 25.0504C252.305 24.0993 252.134 23.3188 251.671 22.7092C251.232 22.0995 250.719 21.7946 250.134 21.7946H245.049L244.171 28.7817Z" fill="#F0FF00"/>
<path d="M233.95 43.085H229.561L232.707 17.478H237.096L233.95 43.085Z" fill="#F0FF00"/>
<path d="M225.829 43.085H220.671L216.062 33.0983H213.794L212.55 43.085H208.161L211.343 17.478H220.891C222.183 17.478 223.281 17.856 224.183 18.612C225.11 19.3681 225.793 20.3558 226.232 21.5751C226.671 22.7945 226.805 24.0992 226.634 25.4893C226.512 26.4648 226.195 27.4403 225.683 28.4158C225.195 29.367 224.549 30.2327 223.744 31.0131C222.964 31.7691 222.074 32.3422 221.074 32.7324L225.829 43.085ZM222.244 25.0504C222.293 24.587 222.244 24.1114 222.098 23.6237C221.952 23.1359 221.72 22.7214 221.403 22.3799C221.11 22.0385 220.72 21.8678 220.232 21.8678H215.184L214.343 28.4524H219.245C219.732 28.4524 220.184 28.2817 220.598 27.9403C221.037 27.5989 221.403 27.1721 221.696 26.6599C221.988 26.1234 222.171 25.5869 222.244 25.0504Z" fill="#F0FF00"/>
<path d="M194.692 43.3043C192.887 43.3043 191.278 42.9506 189.863 42.2434C188.449 41.5118 187.254 40.5485 186.278 39.3535C185.23 38.2073 184.461 36.8537 183.974 35.2929C183.486 33.7078 183.364 31.9762 183.608 30.0984C183.803 28.3669 184.315 26.7085 185.144 25.1233C185.973 23.5381 187.022 22.148 188.29 20.9531C189.583 19.8068 191.009 18.9167 192.57 18.2826C194.155 17.6242 195.802 17.2949 197.509 17.2949C199.387 17.2949 201.118 17.7339 202.703 18.6119C204.313 19.4654 205.74 20.7702 206.983 22.5261L203.215 25.3062C202.362 24.0625 201.435 23.1845 200.435 22.6724C199.46 22.1359 198.423 21.8676 197.326 21.8676C196.18 21.8676 195.094 22.0993 194.07 22.5626C193.046 23.026 192.131 23.6723 191.327 24.5014C190.497 25.2087 189.79 26.0866 189.205 27.1353C188.644 28.184 188.278 29.318 188.107 30.5374C187.985 31.6592 188.059 32.7079 188.327 33.6834C188.595 34.6589 189.022 35.5612 189.607 36.3904C190.29 37.1464 191.07 37.7317 191.948 38.1463C192.851 38.5365 193.826 38.7316 194.875 38.7316C196.07 38.7316 197.241 38.4511 198.387 37.8902C199.557 37.3049 200.716 36.3904 201.862 35.1466L205.154 38.2194C203.496 39.9754 201.789 41.2679 200.033 42.0971C198.277 42.9019 196.497 43.3043 194.692 43.3043Z" fill="#F0FF00"/>
<path d="M171.42 43.4505C170.298 43.4505 169.188 43.2798 168.091 42.9384C167.018 42.5726 166.03 42.0848 165.128 41.4751C164.225 40.8655 163.469 40.1948 162.86 39.4632L166.408 36.4635C167.042 37.2195 167.835 37.817 168.786 38.256C169.761 38.695 170.676 38.9145 171.529 38.9145C172.334 38.9145 173.078 38.7559 173.761 38.4389C174.468 38.0975 175.041 37.6585 175.48 37.122C175.919 36.5611 176.175 35.9514 176.248 35.2929C176.346 34.5857 176.163 33.976 175.7 33.4638C175.236 32.9273 174.627 32.5371 173.871 32.2932C171.749 31.7079 169.944 31.086 168.457 30.4276C166.993 29.7691 165.957 28.8912 165.347 27.7937C164.738 26.6963 164.64 25.2208 165.055 23.3674C165.567 21.2944 166.64 19.758 168.274 18.7581C169.908 17.7582 171.786 17.2583 173.907 17.2583C175.249 17.2583 176.602 17.4778 177.968 17.9168C179.358 18.3314 180.699 19.002 181.992 19.9287L178.626 23.0382C177.943 22.648 177.212 22.3309 176.431 22.087C175.675 21.8188 174.871 21.6724 174.017 21.6481C173.31 21.6237 172.615 21.709 171.932 21.9041C171.273 22.0748 170.7 22.3675 170.213 22.7821C169.749 23.1967 169.457 23.7332 169.335 24.3917C169.237 25.0501 169.347 25.5623 169.664 25.9281C169.981 26.2939 170.456 26.5987 171.09 26.8426C171.749 27.0621 172.505 27.3304 173.359 27.6474C175.041 28.1108 176.456 28.6473 177.602 29.257C178.773 29.8667 179.614 30.6837 180.126 31.7079C180.663 32.7078 180.821 34.0491 180.602 35.7319C180.431 37.1707 179.907 38.4755 179.029 39.6461C178.151 40.8167 177.041 41.7434 175.7 42.4263C174.383 43.1091 172.956 43.4505 171.42 43.4505Z" fill="#F0FF00"/>
<path d="M161.119 30.3545C160.9 32.1104 160.363 33.7566 159.51 35.293C158.681 36.8294 157.62 38.1829 156.327 39.3535C155.035 40.5242 153.584 41.4387 151.974 42.0971C150.389 42.7556 148.731 43.0848 146.999 43.0848H139.536L142.719 17.3682H150.072C151.828 17.3682 153.425 17.7096 154.864 18.3924C156.303 19.0509 157.522 19.9776 158.522 21.1726C159.546 22.3676 160.29 23.7455 160.754 25.3063C161.217 26.8671 161.339 28.5499 161.119 30.3545ZM158.705 30.0619C158.949 28.1597 158.717 26.4281 158.01 24.8673C157.327 23.2821 156.278 22.014 154.864 21.0629C153.474 20.1118 151.816 19.6362 149.889 19.6362H144.877L142.243 40.7802H147.182C148.621 40.7802 149.999 40.4998 151.316 39.9389C152.633 39.3779 153.815 38.5975 154.864 37.5976C155.913 36.5978 156.766 35.4637 157.425 34.1956C158.108 32.903 158.534 31.5251 158.705 30.0619Z" fill="#F0FF00"/>
<path d="M135.814 43.085H123.925L127.071 17.478H129.485L126.595 40.8169H136.107L135.814 43.085Z" fill="#F0FF00"/>
<path d="M119.999 43.085H106.135L109.281 17.478H123.145L122.889 19.6363H111.439L110.195 29.5133H119.487L119.231 31.5984H109.976L108.805 40.9267H120.255L119.999 43.085Z" fill="#F0FF00"/>
<path d="M102.047 43.085H99.6327L102.779 17.478H105.193L102.047 43.085Z" fill="#F0FF00"/>
<path d="M99.4866 17.478L88.5853 34.4884L87.4879 43.085H85.1101L86.1709 34.4884L79.4766 17.478H82.0373L87.6342 31.9642L96.8527 17.478H99.4866Z" fill="#F0FF00"/>
<path d="M44.6432 11.7671L27.7858 38.0714L26.0888 51.365H22.4118L24.0523 38.0714L13.7003 11.7671H17.6601L26.3151 34.1682L40.5703 11.7671H44.6432Z" fill="#75835D"/>
<path d="M50.5753 11.9155L33.7179 38.2199L32.0208 51.5134H28.3439L29.9844 38.2199L19.6323 11.9155H23.5921L32.2471 34.3166L46.5023 11.9155H50.5753Z" fill="#75835D"/>
<circle cx="31.1147" cy="30.3545" r="29.3345" stroke="#9BA885" stroke-opacity="0.5" stroke-width="2"/>
</svg>
