<svg width="218.556" height="33.547" viewBox="0 0 218.556 33.547" xmlns="http://www.w3.org/2000/svg"><g id="svgGroup" stroke-linecap="round" fill-rule="evenodd" font-size="9pt" stroke="#000" stroke-width="0" fill="#c252e1" style="stroke:#000;stroke-width:0;fill:#c252e1"><path d="M 36.738 18.74 L 36.738 18.889 A 10.165 10.165 0 0 1 36.647 20.284 A 7.605 7.605 0 0 1 36.367 21.542 A 7.209 7.209 0 0 1 35.576 23.203 A 5.464 5.464 0 0 1 33.955 24.826 A 8.42 8.42 0 0 1 32.888 25.421 A 7.047 7.047 0 0 1 32.248 25.68 A 9.718 9.718 0 0 1 30.42 26.125 A 15.93 15.93 0 0 1 29.312 26.244 A 13.153 13.153 0 0 1 28.686 26.273 L 28.5 26.273 A 12.904 12.904 0 0 1 27.04 26.195 A 9.579 9.579 0 0 1 25.735 25.958 A 8.839 8.839 0 0 1 24.663 25.602 A 6.504 6.504 0 0 1 23.694 25.114 A 6.04 6.04 0 0 1 22.791 24.435 A 5 5 0 0 1 22.284 23.898 A 6.458 6.458 0 0 1 21.607 22.928 A 5.63 5.63 0 0 1 21.375 22.47 A 6.778 6.778 0 0 1 20.958 21.305 A 6.1 6.1 0 0 1 20.893 21.023 Q 20.744 20.299 20.744 19.668 A 3.28 3.28 0 0 1 20.823 18.924 Q 20.944 18.407 21.248 18.04 A 1.949 1.949 0 0 1 21.514 17.775 A 2.775 2.775 0 0 1 23.077 17.157 A 3.577 3.577 0 0 1 23.379 17.145 A 3.308 3.308 0 0 1 25.336 17.785 A 2.157 2.157 0 0 1 26.251 19.338 A 3.051 3.051 0 0 1 26.273 19.631 A 5.263 5.263 0 0 0 26.327 20.272 Q 26.459 21.15 26.904 21.533 A 1.925 1.925 0 0 0 27.575 21.899 Q 28.02 22.043 28.611 22.043 A 4.246 4.246 0 0 0 29.37 21.956 Q 30.048 21.81 30.495 21.431 Q 31.146 20.877 31.171 19.482 A 6.285 6.285 0 0 0 31.172 19.371 Q 31.172 18.091 30.42 17.107 A 8.29 8.29 0 0 0 29.262 15.885 A 10.238 10.238 0 0 0 28.519 15.298 Q 27.368 14.473 26.125 13.693 Q 24.826 12.858 23.676 11.94 A 8.328 8.328 0 0 1 22.091 10.287 A 7.675 7.675 0 0 1 21.802 9.853 A 5.059 5.059 0 0 1 21.104 7.891 A 6.408 6.408 0 0 1 21.041 7.125 L 21.041 6.828 A 13.086 13.086 0 0 1 21.124 5.433 Q 21.203 4.755 21.358 4.18 A 6.392 6.392 0 0 1 21.57 3.525 A 5.196 5.196 0 0 1 22.273 2.247 A 4.429 4.429 0 0 1 23.082 1.429 A 5.411 5.411 0 0 1 24.492 0.632 A 7.1 7.1 0 0 1 25.513 0.325 A 12.721 12.721 0 0 1 27.015 0.086 Q 27.761 0.011 28.594 0.001 A 21.161 21.161 0 0 1 28.834 0 L 29.316 0 A 12.678 12.678 0 0 1 30.646 0.066 Q 31.503 0.157 32.211 0.371 A 8.337 8.337 0 0 1 33.174 0.735 Q 33.743 0.994 34.187 1.317 A 5.304 5.304 0 0 1 34.99 2.032 A 4.392 4.392 0 0 1 35.439 2.616 A 6.238 6.238 0 0 1 35.947 3.595 A 5.428 5.428 0 0 1 36.107 4.045 A 7.233 7.233 0 0 1 36.288 4.727 A 5.476 5.476 0 0 1 36.386 5.362 A 18.534 18.534 0 0 1 36.415 5.721 Q 36.44 6.066 36.441 6.311 A 5.172 5.172 0 0 1 36.441 6.346 A 2.463 2.463 0 0 1 36.29 7.224 A 2.189 2.189 0 0 1 35.653 8.118 A 2.792 2.792 0 0 1 33.976 8.787 A 3.605 3.605 0 0 1 33.732 8.795 A 2.446 2.446 0 0 1 32.635 8.527 A 3.438 3.438 0 0 1 32.063 8.164 Q 31.536 7.758 31.349 7.305 A 1.333 1.333 0 0 1 31.246 6.791 Q 31.246 5.27 30.699 4.676 A 1.751 1.751 0 0 0 29.869 4.18 Q 29.588 4.1 29.252 4.086 A 3.566 3.566 0 0 0 29.094 4.082 A 5.471 5.471 0 0 0 28.381 4.126 Q 27.655 4.221 27.183 4.527 Q 26.619 4.893 26.518 6.111 A 6.928 6.928 0 0 0 26.496 6.68 A 2.489 2.489 0 0 0 26.951 8.081 A 4.851 4.851 0 0 0 27.532 8.759 A 6.432 6.432 0 0 0 28.11 9.259 A 9.732 9.732 0 0 0 28.527 9.565 Q 29.035 9.92 29.762 10.354 A 3105.835 3105.835 0 0 0 30.516 10.803 Q 31.112 11.158 31.599 11.448 A 21.007 21.007 0 0 1 33.454 12.719 Q 34.363 13.415 35.087 14.287 Q 35.811 15.159 36.256 16.254 A 6.412 6.412 0 0 1 36.647 17.698 A 8.292 8.292 0 0 1 36.738 18.74 Z M 200.892 14.176 L 200.892 21.895 A 10.557 10.557 0 0 1 200.816 23.18 A 8.615 8.615 0 0 1 200.678 23.991 A 3.392 3.392 0 0 1 200.395 24.8 A 2.666 2.666 0 0 1 199.843 25.541 A 1.964 1.964 0 0 1 199.107 25.967 Q 198.803 26.068 198.433 26.105 A 4.471 4.471 0 0 1 197.997 26.125 A 4.03 4.03 0 0 1 197.309 26.07 Q 196.602 25.948 196.179 25.55 A 2.603 2.603 0 0 1 195.529 24.562 A 3.493 3.493 0 0 1 195.372 24.01 A 9.73 9.73 0 0 1 195.209 22.799 A 12.318 12.318 0 0 1 195.177 21.895 L 195.177 14.658 Q 195.177 13.545 194.908 12.729 A 1.088 1.088 0 0 0 194.161 11.996 Q 193.895 11.912 193.544 11.912 A 1.872 1.872 0 0 0 192.977 11.994 A 1.499 1.499 0 0 0 192.319 12.413 Q 191.917 12.848 191.668 13.561 A 5.146 5.146 0 0 0 191.596 13.786 A 7.449 7.449 0 0 0 191.376 14.671 Q 191.274 15.211 191.225 15.836 A 29.968 29.968 0 0 0 191.145 17.378 A 36.732 36.732 0 0 0 191.132 18.369 L 191.132 21.895 A 10.557 10.557 0 0 1 191.057 23.18 A 8.615 8.615 0 0 1 190.918 23.991 A 3.392 3.392 0 0 1 190.635 24.8 A 2.666 2.666 0 0 1 190.083 25.541 A 1.964 1.964 0 0 1 189.347 25.967 Q 189.044 26.068 188.674 26.105 A 4.471 4.471 0 0 1 188.237 26.125 A 4.03 4.03 0 0 1 187.549 26.07 Q 186.842 25.948 186.419 25.55 A 2.603 2.603 0 0 1 185.769 24.562 A 3.493 3.493 0 0 1 185.612 24.01 A 9.73 9.73 0 0 1 185.449 22.799 A 12.318 12.318 0 0 1 185.417 21.895 L 185.417 11.764 A 14.993 14.993 0 0 1 185.456 10.65 A 11.14 11.14 0 0 1 185.575 9.648 A 3.039 3.039 0 0 1 185.798 8.893 A 2.358 2.358 0 0 1 186.335 8.136 A 1.821 1.821 0 0 1 186.961 7.762 Q 187.237 7.66 187.58 7.612 A 4.776 4.776 0 0 1 188.237 7.57 A 4.943 4.943 0 0 1 188.902 7.612 Q 189.628 7.711 190.065 8.044 Q 190.687 8.517 190.909 9.231 A 4.868 4.868 0 0 1 191.132 10.688 A 4.46 4.46 0 0 1 192.184 8.819 A 5.488 5.488 0 0 1 192.486 8.517 A 3.466 3.466 0 0 1 194.196 7.663 A 4.957 4.957 0 0 1 195.177 7.57 A 6.529 6.529 0 0 1 197.218 7.904 A 4.801 4.801 0 0 1 199.055 9.018 A 5.123 5.123 0 0 1 199.906 10.096 A 6.886 6.886 0 0 1 200.381 11.059 A 6.417 6.417 0 0 1 200.73 12.276 Q 200.892 13.132 200.892 14.176 Z M 64.144 7.422 L 64.44 7.422 A 13.977 13.977 0 0 1 65.651 7.472 Q 66.244 7.523 66.761 7.629 A 7.812 7.812 0 0 1 67.001 7.682 A 8.198 8.198 0 0 1 67.789 7.919 Q 68.189 8.063 68.521 8.238 A 4.481 4.481 0 0 1 68.736 8.359 Q 69.432 8.776 69.84 9.296 Q 70.396 10.02 70.554 10.771 A 7.678 7.678 0 0 1 70.68 11.562 A 5.967 5.967 0 0 1 70.712 12.172 A 2.289 2.289 0 0 1 70.652 12.717 A 1.322 1.322 0 0 1 69.905 13.647 A 4.198 4.198 0 0 1 68.921 13.963 A 5.775 5.775 0 0 1 68.003 14.065 A 2.254 2.254 0 0 1 67.247 13.942 A 1.993 1.993 0 0 1 66.611 13.573 A 2.078 2.078 0 0 1 66.308 13.257 Q 66.142 13.04 66.078 12.809 A 1.12 1.12 0 0 1 66.036 12.506 A 1.57 1.57 0 0 0 65.936 12.015 A 1.266 1.266 0 0 0 65.47 11.43 A 2.019 2.019 0 0 0 64.636 11.095 A 2.721 2.721 0 0 0 64.181 11.059 A 2.443 2.443 0 0 0 63.604 11.124 A 1.896 1.896 0 0 0 63.03 11.365 A 0.979 0.979 0 0 0 62.613 11.934 Q 62.561 12.11 62.55 12.325 A 2.25 2.25 0 0 0 62.548 12.432 A 1.208 1.208 0 0 0 62.835 13.204 Q 63.075 13.501 63.513 13.758 Q 64.478 14.324 65.554 14.844 A 26.516 26.516 0 0 1 68.096 16.235 A 7.559 7.559 0 0 1 69.572 17.42 A 6.704 6.704 0 0 1 70.109 18.054 A 3.885 3.885 0 0 1 70.796 19.63 A 5.435 5.435 0 0 1 70.897 20.707 A 6.385 6.385 0 0 1 70.792 21.889 A 5.261 5.261 0 0 1 70.582 22.674 A 5.246 5.246 0 0 1 69.652 24.213 A 4.702 4.702 0 0 1 68.467 25.179 Q 68.114 25.383 67.734 25.541 A 11.526 11.526 0 0 1 66.964 25.828 A 9.746 9.746 0 0 1 65.35 26.171 A 13.379 13.379 0 0 1 64.365 26.259 A 11.032 11.032 0 0 1 63.81 26.273 A 14.956 14.956 0 0 1 62.773 26.24 Q 62.265 26.204 61.826 26.132 A 7.398 7.398 0 0 1 61.323 26.032 A 9.173 9.173 0 0 1 60.455 25.791 Q 60.002 25.64 59.62 25.451 A 5.451 5.451 0 0 1 59.505 25.392 A 5.34 5.34 0 0 1 58.833 24.977 A 3.983 3.983 0 0 1 58.262 24.474 A 4.406 4.406 0 0 1 57.528 23.484 A 3.935 3.935 0 0 1 57.278 22.915 A 5.631 5.631 0 0 1 57.056 22.085 A 4.331 4.331 0 0 1 56.981 21.301 A 2.604 2.604 0 0 1 57.129 20.385 Q 57.593 19.148 59.505 19.148 A 2.812 2.812 0 0 1 60.191 19.228 A 2.05 2.05 0 0 1 61.026 19.649 A 1.597 1.597 0 0 1 61.481 20.304 Q 61.639 20.707 61.657 21.264 Q 61.694 21.969 62.362 22.21 A 4.12 4.12 0 0 0 63.772 22.451 A 2.25 2.25 0 0 0 64.287 22.395 A 1.579 1.579 0 0 0 64.951 22.071 A 1.219 1.219 0 0 0 65.402 21.182 A 1.573 1.573 0 0 0 65.405 21.078 A 1.818 1.818 0 0 0 64.971 19.898 A 2.39 2.39 0 0 0 64.867 19.779 A 5.245 5.245 0 0 0 64.193 19.178 A 7.049 7.049 0 0 0 63.503 18.722 A 88.184 88.184 0 0 0 61.843 17.775 Q 60.692 17.163 59.598 16.449 A 7.49 7.49 0 0 1 58.381 15.469 A 6.401 6.401 0 0 1 57.798 14.797 Q 57.093 13.86 57.093 12.58 A 7.372 7.372 0 0 1 57.159 11.561 Q 57.27 10.768 57.566 10.159 Q 58.039 9.185 58.948 8.572 A 5.431 5.431 0 0 1 60.062 8.023 A 7.462 7.462 0 0 1 61.166 7.719 A 14.615 14.615 0 0 1 62.541 7.517 Q 63.248 7.446 64.038 7.425 A 23.937 23.937 0 0 1 64.144 7.422 Z M 211.802 7.422 L 212.099 7.422 A 13.977 13.977 0 0 1 213.309 7.472 Q 213.902 7.523 214.419 7.629 A 7.812 7.812 0 0 1 214.659 7.682 A 8.198 8.198 0 0 1 215.447 7.919 Q 215.847 8.063 216.179 8.238 A 4.481 4.481 0 0 1 216.394 8.359 Q 217.09 8.776 217.498 9.296 Q 218.055 10.02 218.212 10.771 A 7.678 7.678 0 0 1 218.338 11.562 A 5.967 5.967 0 0 1 218.37 12.172 A 2.289 2.289 0 0 1 218.31 12.717 A 1.322 1.322 0 0 1 217.563 13.647 A 4.198 4.198 0 0 1 216.579 13.963 A 5.775 5.775 0 0 1 215.661 14.065 A 2.254 2.254 0 0 1 214.905 13.942 A 1.993 1.993 0 0 1 214.27 13.573 A 2.078 2.078 0 0 1 213.966 13.257 Q 213.801 13.04 213.736 12.809 A 1.12 1.12 0 0 1 213.694 12.506 A 1.57 1.57 0 0 0 213.594 12.015 A 1.266 1.266 0 0 0 213.128 11.43 A 2.019 2.019 0 0 0 212.294 11.095 A 2.721 2.721 0 0 0 211.839 11.059 A 2.443 2.443 0 0 0 211.263 11.124 A 1.896 1.896 0 0 0 210.688 11.365 A 0.979 0.979 0 0 0 210.271 11.934 Q 210.219 12.11 210.209 12.325 A 2.25 2.25 0 0 0 210.206 12.432 A 1.208 1.208 0 0 0 210.494 13.204 Q 210.733 13.501 211.171 13.758 Q 212.136 14.324 213.212 14.844 A 26.516 26.516 0 0 1 215.754 16.235 A 7.559 7.559 0 0 1 217.23 17.42 A 6.704 6.704 0 0 1 217.767 18.054 A 3.885 3.885 0 0 1 218.454 19.63 A 5.435 5.435 0 0 1 218.556 20.707 A 6.385 6.385 0 0 1 218.45 21.889 A 5.261 5.261 0 0 1 218.24 22.674 A 5.246 5.246 0 0 1 217.311 24.213 A 4.702 4.702 0 0 1 216.125 25.179 Q 215.772 25.383 215.392 25.541 A 11.526 11.526 0 0 1 214.622 25.828 A 9.746 9.746 0 0 1 213.008 26.171 A 13.379 13.379 0 0 1 212.024 26.259 A 11.032 11.032 0 0 1 211.468 26.273 A 14.956 14.956 0 0 1 210.431 26.24 Q 209.924 26.204 209.484 26.132 A 7.398 7.398 0 0 1 208.981 26.032 A 9.173 9.173 0 0 1 208.113 25.791 Q 207.66 25.64 207.278 25.451 A 5.451 5.451 0 0 1 207.163 25.392 A 5.34 5.34 0 0 1 206.491 24.977 A 3.983 3.983 0 0 1 205.92 24.474 A 4.406 4.406 0 0 1 205.187 23.484 A 3.935 3.935 0 0 1 204.937 22.915 A 5.631 5.631 0 0 1 204.714 22.085 A 4.331 4.331 0 0 1 204.64 21.301 A 2.604 2.604 0 0 1 204.788 20.385 Q 205.251 19.148 207.163 19.148 A 2.812 2.812 0 0 1 207.849 19.228 A 2.05 2.05 0 0 1 208.685 19.649 A 1.597 1.597 0 0 1 209.139 20.304 Q 209.297 20.707 209.315 21.264 Q 209.353 21.969 210.021 22.21 A 4.12 4.12 0 0 0 211.431 22.451 A 2.25 2.25 0 0 0 211.945 22.395 A 1.579 1.579 0 0 0 212.609 22.071 A 1.219 1.219 0 0 0 213.06 21.182 A 1.573 1.573 0 0 0 213.063 21.078 A 1.818 1.818 0 0 0 212.629 19.898 A 2.39 2.39 0 0 0 212.525 19.779 A 5.245 5.245 0 0 0 211.851 19.178 A 7.049 7.049 0 0 0 211.162 18.722 A 88.184 88.184 0 0 0 209.501 17.775 Q 208.351 17.163 207.256 16.449 A 7.49 7.49 0 0 1 206.04 15.469 A 6.401 6.401 0 0 1 205.456 14.797 Q 204.751 13.86 204.751 12.58 A 7.372 7.372 0 0 1 204.818 11.561 Q 204.928 10.768 205.224 10.159 Q 205.697 9.185 206.606 8.572 A 5.431 5.431 0 0 1 207.72 8.023 A 7.462 7.462 0 0 1 208.824 7.719 A 14.615 14.615 0 0 1 210.199 7.517 Q 210.907 7.446 211.696 7.425 A 23.937 23.937 0 0 1 211.802 7.422 Z M 79.47 13.953 L 79.47 19.705 A 4.252 4.252 0 0 0 79.509 20.269 Q 79.548 20.559 79.625 20.873 A 6.794 6.794 0 0 0 79.627 20.883 A 2.432 2.432 0 0 0 79.966 21.664 A 2.261 2.261 0 0 0 80.212 21.969 Q 80.639 22.414 81.474 22.414 A 5.7 5.7 0 0 0 82.098 22.383 Q 83.067 22.275 83.375 21.802 Q 83.659 21.367 83.741 20.66 A 5.398 5.398 0 0 0 83.774 20.039 A 1.455 1.455 0 0 1 84.268 18.919 A 1.963 1.963 0 0 1 84.442 18.777 A 1.86 1.86 0 0 1 84.929 18.536 Q 85.439 18.361 86.243 18.313 A 10.908 10.908 0 0 1 86.892 18.295 Q 88.067 18.295 88.654 18.58 A 1.16 1.16 0 0 1 89.044 18.87 A 1.992 1.992 0 0 1 89.526 20.188 A 6.936 6.936 0 0 1 89.464 21.146 Q 89.394 21.646 89.246 22.073 A 4.041 4.041 0 0 1 89.174 22.266 A 4.901 4.901 0 0 1 88.494 23.488 A 4.478 4.478 0 0 1 88.2 23.834 Q 87.578 24.492 86.78 24.938 A 8.966 8.966 0 0 1 85.668 25.45 A 7.605 7.605 0 0 1 85.092 25.643 Q 84.183 25.902 83.255 26.014 A 15.48 15.48 0 0 1 81.905 26.118 A 13.524 13.524 0 0 1 81.474 26.125 A 10.348 10.348 0 0 1 78.635 25.735 A 6.997 6.997 0 0 1 76.473 24.713 A 6.645 6.645 0 0 1 76.204 24.511 A 6.022 6.022 0 0 1 74.604 22.609 A 7.041 7.041 0 0 1 74.479 22.368 Q 73.858 21.117 73.83 19.383 A 10.198 10.198 0 0 1 73.829 19.223 L 73.829 14.881 A 11.953 11.953 0 0 1 73.9 13.546 Q 74.002 12.632 74.256 11.894 A 8.081 8.081 0 0 1 74.703 10.843 Q 74.989 10.289 75.341 9.853 A 5.371 5.371 0 0 1 76.282 8.933 A 4.717 4.717 0 0 1 76.835 8.572 A 7.885 7.885 0 0 1 78.204 7.996 A 7.163 7.163 0 0 1 78.523 7.904 A 9.763 9.763 0 0 1 79.533 7.695 A 7.996 7.996 0 0 1 80.147 7.626 A 25.238 25.238 0 0 1 80.694 7.592 Q 80.964 7.579 81.201 7.573 A 12.699 12.699 0 0 1 81.474 7.57 Q 82.951 7.57 84.101 7.793 A 9.382 9.382 0 0 1 84.368 7.849 A 10.686 10.686 0 0 1 85.445 8.15 Q 85.979 8.332 86.433 8.56 A 6.596 6.596 0 0 1 86.493 8.591 Q 87.393 9.055 87.968 9.648 A 5.633 5.633 0 0 1 88.866 10.907 A 5.317 5.317 0 0 1 88.877 10.929 A 5.704 5.704 0 0 1 89.256 11.889 A 5.016 5.016 0 0 1 89.35 12.265 A 6.907 6.907 0 0 1 89.459 12.948 A 5.34 5.34 0 0 1 89.489 13.508 A 3.102 3.102 0 0 1 89.313 14.565 A 2.844 2.844 0 0 1 89.035 15.131 A 1.2 1.2 0 0 1 88.547 15.551 Q 87.963 15.846 86.854 15.846 A 8.506 8.506 0 0 1 86.212 15.82 A 11.304 11.304 0 0 1 85.509 15.744 A 3.145 3.145 0 0 1 84.83 15.574 A 2.501 2.501 0 0 1 84.257 15.271 Q 83.738 14.9 83.737 14.104 A 2.369 2.369 0 0 1 83.737 14.102 Q 83.737 13.354 83.547 12.824 A 2.174 2.174 0 0 0 83.357 12.422 A 1.006 1.006 0 0 0 82.945 12.059 Q 82.576 11.87 81.957 11.819 A 5.965 5.965 0 0 0 81.474 11.801 A 3.582 3.582 0 0 0 80.922 11.84 Q 80.138 11.963 79.85 12.469 A 2.93 2.93 0 0 0 79.471 13.877 A 3.461 3.461 0 0 0 79.47 13.953 Z M 13.73 3.637 L 17.59 16.736 A 95.425 95.425 0 0 0 17.636 18.017 A 91.095 91.095 0 0 1 17.683 19.315 A 59.384 59.384 0 0 1 17.738 21.857 L 17.738 22.414 A 13.829 13.829 0 0 1 17.708 23.357 Q 17.677 23.8 17.617 24.195 A 8.435 8.435 0 0 1 17.599 24.307 A 2.635 2.635 0 0 1 17.406 24.961 A 2.034 2.034 0 0 1 16.922 25.633 Q 16.384 26.125 15.178 26.125 A 4.697 4.697 0 0 1 14.551 26.086 Q 13.815 25.987 13.415 25.633 A 2.076 2.076 0 0 1 12.804 24.667 A 2.76 2.76 0 0 1 12.719 24.307 Q 12.584 23.498 12.58 22.481 A 15.92 15.92 0 0 1 12.58 22.414 L 12.58 19.816 L 5.158 19.816 L 5.158 22.414 A 13.829 13.829 0 0 1 5.128 23.357 Q 5.097 23.8 5.037 24.195 A 8.435 8.435 0 0 1 5.019 24.307 A 2.581 2.581 0 0 1 4.819 24.972 A 2.024 2.024 0 0 1 4.333 25.633 Q 3.785 26.125 2.561 26.125 Q 1.336 26.125 0.798 25.633 A 2.05 2.05 0 0 1 0.228 24.726 A 2.767 2.767 0 0 1 0.13 24.307 A 10.439 10.439 0 0 1 0.033 23.431 Q 0.002 22.981 0 22.481 A 17.056 17.056 0 0 1 0 22.414 L 0 21.857 A 58.092 58.092 0 0 1 0.003 21.329 Q 0.005 21.091 0.009 20.824 A 120.933 120.933 0 0 1 0.019 20.262 A 207.072 207.072 0 0 1 0.065 18.351 Q 0.092 17.397 0.111 16.752 A 1501.226 1501.226 0 0 1 0.111 16.736 Q 0.575 15.122 1.058 13.48 A 180.639 180.639 0 0 1 2.06 10.187 Q 2.579 8.535 3.062 6.902 A 324.32 324.32 0 0 0 4.008 3.637 A 8.576 8.576 0 0 1 4.432 2.438 Q 4.715 1.803 5.084 1.303 A 5.048 5.048 0 0 1 5.223 1.123 Q 5.827 0.377 7.1 0.202 A 6.202 6.202 0 0 1 7.941 0.148 L 9.797 0.148 Q 11.782 0.148 12.524 1.123 A 6.328 6.328 0 0 1 13.159 2.16 Q 13.484 2.819 13.73 3.637 Z M 119.585 29.316 L 119.585 11.764 A 13.783 13.783 0 0 1 119.635 10.564 A 10.664 10.664 0 0 1 119.752 9.658 Q 119.919 8.702 120.503 8.136 A 1.753 1.753 0 0 1 121.12 7.76 Q 121.39 7.659 121.725 7.612 A 4.633 4.633 0 0 1 122.368 7.57 A 4.924 4.924 0 0 1 123.032 7.612 Q 123.371 7.658 123.646 7.756 A 1.937 1.937 0 0 1 124.187 8.044 A 2.306 2.306 0 0 1 125.012 9.231 A 5.063 5.063 0 0 1 125.226 10.688 A 5.005 5.005 0 0 1 126.496 8.591 A 5.89 5.89 0 0 1 126.571 8.517 A 3.236 3.236 0 0 1 128.112 7.693 Q 128.627 7.57 129.233 7.57 A 6.529 6.529 0 0 1 131.274 7.904 A 4.801 4.801 0 0 1 133.111 9.018 A 5.166 5.166 0 0 1 133.973 10.11 A 6.882 6.882 0 0 1 134.438 11.049 Q 134.859 12.082 134.932 13.511 A 12.158 12.158 0 0 1 134.948 14.139 L 134.948 19.52 A 11.224 11.224 0 0 1 134.876 20.826 Q 134.798 21.495 134.634 22.062 A 5.722 5.722 0 0 1 134.438 22.627 A 6.591 6.591 0 0 1 133.897 23.686 A 4.885 4.885 0 0 1 133.111 24.641 Q 132.295 25.42 131.274 25.754 A 6.529 6.529 0 0 1 129.233 26.088 Q 127.545 26.088 126.571 25.151 Q 125.597 24.214 125.226 22.971 L 125.226 29.316 A 12.228 12.228 0 0 1 125.177 30.432 A 9.306 9.306 0 0 1 125.031 31.441 A 3.264 3.264 0 0 1 124.769 32.227 A 2.548 2.548 0 0 1 124.224 32.972 A 1.903 1.903 0 0 1 123.539 33.375 Q 123.248 33.477 122.889 33.519 A 4.535 4.535 0 0 1 122.368 33.547 A 4.035 4.035 0 0 1 121.706 33.496 Q 121.349 33.437 121.066 33.307 A 1.763 1.763 0 0 1 120.568 32.972 A 2.617 2.617 0 0 1 119.961 32.049 A 3.561 3.561 0 0 1 119.78 31.432 A 9.73 9.73 0 0 1 119.617 30.221 A 12.318 12.318 0 0 1 119.585 29.316 Z M 41.581 0.148 L 51.007 0.148 A 13.879 13.879 0 0 1 52.34 0.21 A 11.423 11.423 0 0 1 53.085 0.306 A 3.508 3.508 0 0 1 53.833 0.51 A 2.585 2.585 0 0 1 54.644 1.021 A 1.69 1.69 0 0 1 55.07 1.685 Q 55.237 2.143 55.237 2.783 A 3.762 3.762 0 0 1 55.186 3.425 Q 55.127 3.768 54.998 4.038 A 1.628 1.628 0 0 1 54.644 4.527 A 2.663 2.663 0 0 1 53.743 5.076 A 3.654 3.654 0 0 1 53.085 5.251 A 11.413 11.413 0 0 1 51.755 5.398 A 13.862 13.862 0 0 1 51.007 5.418 L 49.114 5.418 L 49.114 21.895 A 16.473 16.473 0 0 1 49.077 23.026 A 12.272 12.272 0 0 1 48.966 24.047 A 3.178 3.178 0 0 1 48.776 24.757 A 2.288 2.288 0 0 1 48.233 25.568 Q 47.672 26.103 46.401 26.124 A 6.369 6.369 0 0 1 46.294 26.125 A 5.069 5.069 0 0 1 45.61 26.082 Q 44.838 25.977 44.412 25.611 A 1.468 1.468 0 0 1 44.364 25.568 A 2.311 2.311 0 0 1 43.77 24.643 A 3.226 3.226 0 0 1 43.622 24.047 A 12.272 12.272 0 0 1 43.511 23.026 A 16.473 16.473 0 0 1 43.474 21.895 L 43.474 5.418 L 41.581 5.418 A 12.846 12.846 0 0 1 40.133 5.339 A 11.038 11.038 0 0 1 39.512 5.251 A 3.614 3.614 0 0 1 38.758 5.041 A 2.622 2.622 0 0 1 37.944 4.527 A 1.705 1.705 0 0 1 37.508 3.84 Q 37.41 3.563 37.373 3.221 A 4.068 4.068 0 0 1 37.351 2.783 A 3.878 3.878 0 0 1 37.4 2.14 Q 37.457 1.801 37.581 1.534 A 1.627 1.627 0 0 1 37.944 1.021 A 2.605 2.605 0 0 1 38.835 0.481 A 3.618 3.618 0 0 1 39.512 0.306 A 12.389 12.389 0 0 1 40.975 0.161 A 14.512 14.512 0 0 1 41.581 0.148 Z M 140.589 7.57 L 141.628 7.57 L 141.628 4.305 A 11.151 11.151 0 0 1 141.697 3.042 A 9.016 9.016 0 0 1 141.823 2.245 Q 142.018 1.299 142.63 0.724 Q 143.122 0.261 143.998 0.171 A 4.376 4.376 0 0 1 144.448 0.148 A 4.035 4.035 0 0 1 145.11 0.199 Q 145.468 0.259 145.75 0.388 A 1.763 1.763 0 0 1 146.248 0.724 A 2.669 2.669 0 0 1 146.893 1.731 A 3.515 3.515 0 0 1 147.037 2.236 A 9.118 9.118 0 0 1 147.194 3.352 A 11.748 11.748 0 0 1 147.231 4.305 L 147.231 7.57 L 148.753 7.57 A 5.896 5.896 0 0 1 149.561 7.623 Q 149.983 7.681 150.336 7.805 A 3.057 3.057 0 0 1 150.664 7.941 A 1.142 1.142 0 0 1 151.191 8.493 Q 151.425 8.974 151.425 9.797 Q 151.425 11.058 150.817 11.518 A 1.169 1.169 0 0 1 150.664 11.615 Q 150.005 11.969 149.054 12.016 A 6.059 6.059 0 0 1 148.753 12.023 L 147.231 12.023 L 147.231 18.518 A 5.142 5.142 0 0 0 147.326 19.523 A 4.304 4.304 0 0 0 147.5 20.15 Q 147.77 20.893 148.901 20.893 A 6.029 6.029 0 0 1 149.567 20.927 Q 150.411 21.021 150.84 21.375 Q 151.425 21.857 151.425 23.268 A 2.706 2.706 0 0 1 151.271 24.203 Q 150.983 24.991 150.154 25.439 A 5.702 5.702 0 0 1 148.142 26.069 A 7.233 7.233 0 0 1 147.231 26.125 A 10.534 10.534 0 0 1 146.298 26.086 Q 145.818 26.043 145.403 25.953 A 5.47 5.47 0 0 1 144.986 25.847 Q 143.187 25.327 142.444 23.824 A 5.762 5.762 0 0 1 141.978 22.557 A 6.674 6.674 0 0 1 141.906 22.229 Q 141.721 21.338 141.674 20.308 Q 141.628 19.278 141.628 18.147 L 141.628 12.023 L 140.589 12.023 A 5.206 5.206 0 0 1 139.793 11.966 Q 139.354 11.898 138.99 11.749 A 2.844 2.844 0 0 1 138.706 11.615 Q 137.973 11.217 137.955 9.867 A 5.154 5.154 0 0 1 137.954 9.797 A 4.516 4.516 0 0 1 137.993 9.181 Q 138.124 8.228 138.706 7.941 Q 139.343 7.627 140.254 7.579 A 6.396 6.396 0 0 1 140.589 7.57 Z M 98.841 16.773 L 98.841 22.08 A 10.269 10.269 0 0 1 98.776 23.256 A 8.178 8.178 0 0 1 98.637 24.093 Q 98.433 25.012 97.83 25.568 A 1.886 1.886 0 0 1 97.159 25.959 Q 96.68 26.125 96.021 26.125 A 3.912 3.912 0 0 1 95.354 26.072 Q 95 26.011 94.72 25.879 A 1.776 1.776 0 0 1 94.258 25.568 A 2.555 2.555 0 0 1 93.62 24.602 A 3.398 3.398 0 0 1 93.469 24.084 A 9.129 9.129 0 0 1 93.297 22.802 A 11.082 11.082 0 0 1 93.274 22.08 L 93.274 11.69 A 11.413 11.413 0 0 1 93.323 10.611 A 8.61 8.61 0 0 1 93.469 9.639 A 3.162 3.162 0 0 1 93.734 8.869 A 2.498 2.498 0 0 1 94.258 8.164 A 1.874 1.874 0 0 1 94.954 7.76 Q 95.409 7.607 96.021 7.607 A 3.584 3.584 0 0 1 96.654 7.66 Q 97.394 7.793 97.774 8.266 Q 98.303 8.925 98.423 9.955 A 17.955 17.955 0 0 1 98.534 11.497 A 20.997 20.997 0 0 1 98.544 12.135 L 98.841 12.135 A 9.115 9.115 0 0 1 99.521 10.286 A 7.389 7.389 0 0 1 100.399 8.925 Q 101.186 7.962 102.091 7.703 A 2.47 2.47 0 0 1 102.774 7.607 A 4.877 4.877 0 0 1 103.409 7.646 Q 104.1 7.737 104.464 8.046 A 1.116 1.116 0 0 1 104.658 8.257 A 1.993 1.993 0 0 1 104.907 8.769 Q 105.08 9.284 105.107 10.054 A 8.43 8.43 0 0 1 105.112 10.354 A 4.081 4.081 0 0 1 104.981 11.438 Q 104.512 13.137 102.366 13.137 A 4.034 4.034 0 0 0 101.997 13.155 Q 101.727 13.18 101.411 13.239 A 3.202 3.202 0 0 0 100.629 13.496 A 3.862 3.862 0 0 0 100.325 13.656 A 2.905 2.905 0 0 0 99.689 14.169 A 3.347 3.347 0 0 0 99.583 14.287 A 2.778 2.778 0 0 0 99.257 14.795 A 3.792 3.792 0 0 0 99.045 15.308 Q 98.869 15.836 98.845 16.545 A 6.735 6.735 0 0 0 98.841 16.773 Z M 166.046 19.148 L 166.046 14.547 A 10.692 10.692 0 0 1 166.111 13.331 Q 166.182 12.709 166.332 12.18 A 5.449 5.449 0 0 1 166.51 11.652 Q 166.974 10.465 167.707 9.667 A 5.633 5.633 0 0 1 168.987 8.619 A 5.21 5.21 0 0 1 169.349 8.424 Q 170.221 7.979 171.111 7.756 A 10.662 10.662 0 0 1 172.004 7.566 A 8.161 8.161 0 0 1 172.735 7.478 A 30.436 30.436 0 0 1 173.09 7.453 Q 173.475 7.429 173.753 7.424 A 7.94 7.94 0 0 1 173.913 7.422 Q 174.299 7.422 174.941 7.467 A 32.586 32.586 0 0 1 175.082 7.478 Q 175.824 7.533 176.678 7.756 A 7.907 7.907 0 0 1 178.038 8.252 A 9.094 9.094 0 0 1 178.385 8.424 Q 179.257 8.869 179.943 9.667 A 5.56 5.56 0 0 1 180.686 10.752 A 7.283 7.283 0 0 1 181.084 11.652 Q 181.452 12.652 181.51 14.02 A 12.431 12.431 0 0 1 181.521 14.547 L 181.521 19.148 A 10.754 10.754 0 0 1 181.447 20.441 Q 181.366 21.105 181.198 21.674 A 5.96 5.96 0 0 1 181.075 22.043 A 7.57 7.57 0 0 1 180.578 23.118 A 5.693 5.693 0 0 1 179.943 24.028 A 5.267 5.267 0 0 1 178.809 25.027 A 4.827 4.827 0 0 1 178.385 25.272 A 8.396 8.396 0 0 1 177.104 25.814 A 7.409 7.409 0 0 1 176.678 25.94 A 10.136 10.136 0 0 1 175.777 26.133 A 7.849 7.849 0 0 1 175.082 26.218 A 29.411 29.411 0 0 1 174.731 26.242 Q 174.35 26.266 174.073 26.272 A 7.898 7.898 0 0 1 173.913 26.273 Q 173.505 26.273 172.744 26.218 A 8.264 8.264 0 0 1 171.967 26.12 A 11.164 11.164 0 0 1 171.121 25.94 A 8.502 8.502 0 0 1 169.738 25.456 A 9.82 9.82 0 0 1 169.349 25.272 A 5.371 5.371 0 0 1 167.807 24.127 A 6.127 6.127 0 0 1 167.716 24.028 A 5.651 5.651 0 0 1 166.897 22.879 A 7.251 7.251 0 0 1 166.51 22.043 Q 166.046 20.856 166.046 19.148 Z M 108.378 21.969 L 108.378 11.727 A 11.151 11.151 0 0 1 108.447 10.463 A 9.016 9.016 0 0 1 108.573 9.667 A 3.284 3.284 0 0 1 108.833 8.886 A 2.571 2.571 0 0 1 109.371 8.146 A 1.874 1.874 0 0 1 110.059 7.738 Q 110.538 7.57 111.198 7.57 A 4.159 4.159 0 0 1 111.871 7.621 Q 112.231 7.68 112.516 7.808 A 1.794 1.794 0 0 1 113.026 8.146 A 2.643 2.643 0 0 1 113.679 9.158 A 3.495 3.495 0 0 1 113.824 9.667 A 9.434 9.434 0 0 1 113.991 10.915 A 11.701 11.701 0 0 1 114.019 11.727 L 114.019 21.969 A 11.461 11.461 0 0 1 113.957 23.183 A 9.033 9.033 0 0 1 113.824 24.047 A 3.259 3.259 0 0 1 113.569 24.814 A 2.515 2.515 0 0 1 113.026 25.559 A 1.874 1.874 0 0 1 112.352 25.956 Q 112.064 26.056 111.712 26.097 A 4.473 4.473 0 0 1 111.198 26.125 A 4.225 4.225 0 0 1 110.526 26.075 Q 110.172 26.018 109.89 25.895 A 1.801 1.801 0 0 1 109.371 25.559 Q 108.768 24.993 108.573 24.047 Q 108.378 23.101 108.378 21.969 Z M 155.841 21.969 L 155.841 11.727 A 11.151 11.151 0 0 1 155.91 10.463 A 9.016 9.016 0 0 1 156.036 9.667 A 3.284 3.284 0 0 1 156.296 8.886 A 2.571 2.571 0 0 1 156.833 8.146 A 1.874 1.874 0 0 1 157.521 7.738 Q 158.001 7.57 158.661 7.57 A 4.159 4.159 0 0 1 159.333 7.621 Q 159.693 7.68 159.979 7.808 A 1.794 1.794 0 0 1 160.489 8.146 A 2.643 2.643 0 0 1 161.142 9.158 A 3.495 3.495 0 0 1 161.287 9.667 A 9.434 9.434 0 0 1 161.454 10.915 A 11.701 11.701 0 0 1 161.481 11.727 L 161.481 21.969 A 11.461 11.461 0 0 1 161.42 23.183 A 9.033 9.033 0 0 1 161.287 24.047 A 3.259 3.259 0 0 1 161.032 24.814 A 2.515 2.515 0 0 1 160.489 25.559 A 1.874 1.874 0 0 1 159.815 25.956 Q 159.527 26.056 159.175 26.097 A 4.473 4.473 0 0 1 158.661 26.125 A 4.225 4.225 0 0 1 157.989 26.075 Q 157.635 26.018 157.352 25.895 A 1.801 1.801 0 0 1 156.833 25.559 Q 156.23 24.993 156.036 24.047 Q 155.841 23.101 155.841 21.969 Z M 11.838 14.918 L 9.092 4.973 L 8.684 4.973 L 5.938 14.918 L 11.838 14.918 Z M 171.761 13.731 L 171.761 20.447 A 2.66 2.66 0 0 0 171.829 20.902 Q 171.893 21.165 172.012 21.379 A 1.658 1.658 0 0 0 172.021 21.394 A 1.658 1.658 0 0 0 172.324 21.785 A 2.312 2.312 0 0 0 172.66 22.052 A 1.504 1.504 0 0 0 173.059 22.233 Q 173.249 22.29 173.478 22.316 A 3.785 3.785 0 0 0 173.913 22.34 A 3.393 3.393 0 0 0 174.362 22.312 Q 174.822 22.251 175.11 22.052 A 2.287 2.287 0 0 0 175.454 21.764 A 1.725 1.725 0 0 0 175.731 21.394 A 2.127 2.127 0 0 0 175.991 20.447 L 175.991 13.731 A 2.515 2.515 0 0 0 175.775 12.804 A 2.906 2.906 0 0 0 175.731 12.71 Q 175.527 12.339 175.11 12.014 A 1.38 1.38 0 0 0 174.675 11.792 Q 174.351 11.69 173.913 11.69 A 3.294 3.294 0 0 0 173.44 11.721 Q 172.96 11.791 172.661 12.014 A 2.823 2.823 0 0 0 172.345 12.286 Q 172.142 12.49 172.021 12.71 A 2.191 2.191 0 0 0 171.832 13.227 Q 171.778 13.46 171.761 13.726 A 3.515 3.515 0 0 0 171.761 13.731 Z M 129.233 19.111 L 129.233 14.621 Q 129.233 13.526 128.974 12.719 Q 128.732 11.969 127.754 11.916 A 2.83 2.83 0 0 0 127.601 11.912 A 2.185 2.185 0 0 0 126.792 12.054 Q 126.057 12.344 125.708 13.23 Q 125.448 13.916 125.346 14.955 Q 125.244 15.994 125.226 17.404 A 8.839 8.839 0 0 0 125.301 18.535 A 11.044 11.044 0 0 0 125.43 19.306 A 4.95 4.95 0 0 0 125.713 20.243 A 3.897 3.897 0 0 0 126.153 21.032 A 1.653 1.653 0 0 0 127.348 21.732 A 2.205 2.205 0 0 0 127.601 21.746 Q 128.714 21.746 128.974 20.948 Q 129.233 20.15 129.233 19.111 Z M 113.99 3.753 A 4.385 4.385 0 0 0 114.056 2.969 Q 114.056 1.484 113.36 0.816 A 2.066 2.066 0 0 0 112.759 0.42 Q 112.432 0.275 112.019 0.207 A 4.861 4.861 0 0 0 111.235 0.148 A 4.95 4.95 0 0 0 110.935 0.157 Q 110.497 0.184 110.13 0.29 A 2.448 2.448 0 0 0 109.157 0.816 A 1.951 1.951 0 0 0 108.688 1.468 Q 108.415 2.068 108.415 2.969 Q 108.415 3.661 108.589 4.181 A 2.167 2.167 0 0 0 109.157 5.093 A 2.273 2.273 0 0 0 109.513 5.366 Q 109.901 5.607 110.405 5.711 A 4.125 4.125 0 0 0 111.235 5.789 A 4.847 4.847 0 0 0 111.459 5.784 Q 112.635 5.73 113.313 5.093 A 2.052 2.052 0 0 0 113.733 4.534 Q 113.91 4.192 113.99 3.753 Z M 161.453 3.753 A 4.385 4.385 0 0 0 161.519 2.969 Q 161.519 1.484 160.823 0.816 A 2.066 2.066 0 0 0 160.222 0.42 Q 159.894 0.275 159.482 0.207 A 4.861 4.861 0 0 0 158.698 0.148 A 4.95 4.95 0 0 0 158.398 0.157 Q 157.96 0.184 157.593 0.29 A 2.448 2.448 0 0 0 156.62 0.816 A 1.951 1.951 0 0 0 156.151 1.468 Q 155.878 2.068 155.878 2.969 Q 155.878 3.661 156.052 4.181 A 2.167 2.167 0 0 0 156.62 5.093 A 2.273 2.273 0 0 0 156.976 5.366 Q 157.364 5.607 157.868 5.711 A 4.125 4.125 0 0 0 158.698 5.789 A 4.847 4.847 0 0 0 158.922 5.784 Q 160.098 5.73 160.776 5.093 A 2.052 2.052 0 0 0 161.196 4.534 Q 161.373 4.192 161.453 3.753 Z" vector-effect="non-scaling-stroke"/></g></svg>