
<svg width="300" height="74" viewBox="0 0 300 74" fill="none" xmlns="http://www.w3.org/2000/svg">
<path fill-rule="evenodd" clip-rule="evenodd" d="M300 23V10.0007C300 4.47786 295.523 0.000714509 290 0.000695608L86.747 0L74.0217 8.19717L17.5851 8.1979L1.40921 23H0V24.2895V54V64C0 69.5229 4.47715 74 10 74H274.535L300 54V24.2895V23Z" fill="#121312"/>
<path fill-rule="evenodd" clip-rule="evenodd" d="M74.3159 9.19716L17.9736 9.19789L1.79769 24H1V64C1 68.9706 5.02944 73 10 73H274.189L299 53.5138V10.0007C299 5.03015 294.971 1.00071 290 1.0007L87.0412 1L74.3159 9.19716ZM86.747 0L290 0.000695608C295.523 0.000714509 300 4.47786 300 10.0007V54L274.535 74H10C4.47715 74 0 69.5229 0 64V23H1.40921L17.5851 8.1979L74.0217 8.19717L86.747 0Z" fill="#FCFC03"/>
<path fill-rule="evenodd" clip-rule="evenodd" d="M74.3159 9.19716L17.9736 9.19789L1.79769 24H1V64C1 68.9706 5.02944 73 10 73H274.189L299 53.5138V10.0007C299 5.03015 294.971 1.00071 290 1.0007L87.0412 1L74.3159 9.19716ZM86.747 0L290 0.000695608C295.523 0.000714509 300 4.47786 300 10.0007V54L274.535 74H10C4.47715 74 0 69.5229 0 64V23H1.40921L17.5851 8.1979L74.0217 8.19717L86.747 0Z" fill="#FCFC03"/>
<path d="M137.633 46.8813H133.979C133.691 46.8813 133.547 46.8093 133.421 46.5753L127.391 36.6212V46.5033C127.391 46.7373 127.247 46.8813 126.995 46.8813H125.087C124.817 46.8813 124.691 46.7373 124.691 46.5033V34.6593C124.691 34.4253 124.817 34.2812 125.087 34.2812H128.723C129.011 34.2812 129.155 34.3712 129.281 34.5873L135.311 44.5592V34.6593C135.311 34.4253 135.473 34.2812 135.725 34.2812H137.633C137.885 34.2812 138.029 34.4253 138.029 34.6593V46.5033C138.029 46.7373 137.885 46.8813 137.633 46.8813Z" fill="#FCFC03"/>
<path d="M120.491 37.1613V44.0012C120.491 45.9812 119.555 46.8813 117.485 46.8813H110.249C108.197 46.8813 107.225 45.9812 107.225 44.0012V37.1613C107.225 35.1813 108.197 34.2812 110.249 34.2812H117.485C119.555 34.2812 120.491 35.1813 120.491 37.1613ZM117.575 43.1733V37.9893C117.575 36.8733 117.305 36.6393 115.973 36.6393H111.743C110.411 36.6393 110.141 36.8733 110.141 37.9893V43.1733C110.141 44.2893 110.411 44.5233 111.743 44.5233H115.973C117.305 44.5233 117.575 44.2893 117.575 43.1733Z" fill="#FCFC03"/>
<path d="M89.1823 46.5033V36.6393H84.7183C84.4483 36.6393 84.3223 36.4953 84.3223 36.2613V34.6593C84.3223 34.4253 84.4483 34.2812 84.7183 34.2812H96.5443C96.8143 34.2812 96.9403 34.4253 96.9403 34.6593V36.2613C96.9403 36.4953 96.8143 36.6393 96.5443 36.6393H92.0983V46.5033C92.0983 46.7373 91.9363 46.8813 91.6843 46.8813H89.5783C89.3263 46.8813 89.1823 46.7373 89.1823 46.5033Z" fill="#FCFC03"/>
<path d="M75.9004 34.6593V44.5233H84.1084C84.3604 44.5233 84.5044 44.6673 84.5044 44.9013V46.5033C84.5044 46.7373 84.3604 46.8813 84.1084 46.8813H73.3804C73.1104 46.8813 72.9844 46.7373 72.9844 46.5033V34.6593C72.9844 34.4253 73.1104 34.2812 73.3804 34.2812H75.4864C75.7384 34.2812 75.9004 34.4253 75.9004 34.6593Z" fill="#FCFC03"/>
<path d="M68.5801 34.6593V46.5033C68.5801 46.7373 68.4181 46.8813 68.1661 46.8813H66.0601C65.7901 46.8813 65.6641 46.7373 65.6641 46.5033V34.6593C65.6641 34.4253 65.7901 34.2812 66.0601 34.2812H68.1661C68.4181 34.2812 68.5801 34.4253 68.5801 34.6593Z" fill="#FCFC03"/>
<path d="M51.4853 34.6593V43.1733C51.4853 44.2893 51.7373 44.5233 53.0873 44.5233H56.8313C58.1813 44.5233 58.4513 44.2893 58.4513 43.1733V34.6593C58.4513 34.4253 58.5953 34.2812 58.8473 34.2812H60.9533C61.2053 34.2812 61.3673 34.4253 61.3673 34.6593V44.0012C61.3673 45.9812 60.4313 46.8813 58.3613 46.8813H51.5933C49.5233 46.8813 48.5693 45.9812 48.5693 44.0012V34.6593C48.5693 34.4253 48.6953 34.2812 48.9653 34.2812H51.0713C51.3413 34.2812 51.4853 34.4253 51.4853 34.6593Z" fill="#FCFC03"/>
<path d="M44.6787 37.8093C44.6787 39.3753 44.1207 40.2213 42.8607 40.5093C44.2647 40.7613 44.8587 41.6073 44.8587 43.2453V44.0732C44.8587 45.9992 43.9587 46.8813 41.9247 46.8813H32.3667C32.0967 46.8813 31.9707 46.7373 31.9707 46.5033V34.6593C31.9707 34.4253 32.0967 34.2812 32.3667 34.2812H41.7267C43.7607 34.2812 44.6787 35.1633 44.6787 37.0893V37.8093ZM40.6287 41.6793H34.8867V44.5233H40.6287C41.6727 44.5233 41.9427 44.2713 41.9427 43.3713V42.8313C41.9427 41.9313 41.6727 41.6793 40.6287 41.6793ZM34.8867 36.6393V39.3753H40.4487C41.4747 39.3753 41.7627 39.1053 41.7627 38.2232V37.7913C41.7627 36.8913 41.4747 36.6393 40.4487 36.6393H34.8867Z" fill="#FCFC03"/>
<path d="M268.029 32.8691L263.294 29.3262H245.772L244.632 32.8691H253.875L248.911 48.1633H252.735L257.681 32.8691H268.029Z" fill="#FCFC03"/>
<path d="M202.645 29.3262L197.892 32.8691H215.817L216.974 29.3262H202.645Z" fill="#FCFC03"/>
<path d="M197.886 32.8604L192.923 48.1545H196.746L200.973 35.1229L197.886 32.8604Z" fill="#FCFC03"/>
<path d="M216.97 29.3262L211.796 45.2693L213.602 45.129L206.183 39.4989H200.676L211.673 48.1633H214.672L220.057 31.5887L216.97 29.3262Z" fill="#FCFC03"/>
<path d="M170.462 38.5693L174.97 36.3419L176.513 31.5887L173.426 29.3262H152.8L148.029 32.8691H172.268L170.988 36.868H161.271L160.324 39.762H170.041L167.322 48.1633L171.865 45.9007L173.496 40.867L170.444 38.622L170.462 38.5693Z" fill="#FCFC03"/>
<path d="M154.888 44.537L157.695 35.8024L154.573 33.4697L149.907 48.1501H167.324L168.481 44.537H154.888Z" fill="#FCFC03"/>
<path d="M182.36 31.2626L179.273 29L174.274 44.3819L173.836 45.7324L177.116 48.1528H190.972L192.147 44.5398H178.045L182.36 31.2626Z" fill="#FCFC03"/>
<path d="M224.342 36.947L224.956 35.1054L221.887 32.8604L220.133 38.2274L223.184 40.4548V40.4724H236.865L235.55 44.5415H218.133L216.976 48.1545H234.375L238.935 45.892L241.18 38.9815L238.356 36.9119L224.342 36.947Z" fill="#FCFC03"/>
<path d="M226.628 29.3262L221.893 32.8691H242.747L243.904 29.3262H226.628Z" fill="#FCFC03"/>
</svg>
