<svg width="100%" height="100%" viewBox="0 0 1046 66" fill="none" xmlns="http://www.w3.org/2000/svg">
<path d="M801.798 17.5711L817.442 2.38084H874.493L888.756 13.773H903.018L903.479 2.38084H921.25L921.422 8.96294H945.347V2.38084H1035.44C1041.07 2.38084 1045.65 6.85791 1045.65 12.381V65.8618H0.646484L0.909775 52.6946C0.962148 50.0767 2.06026 47.5833 3.96822 45.7502C5.87617 43.917 8.44176 42.8902 11.1138 42.8905H388.518L422.46 21.8761L456.403 0.861816H624.075L639.258 17.5711H801.798Z" fill="#404833"/>
<path d="M420.932 16.0752H450.134V22.4644H420.932V16.0752ZM468.79 16.0752H497.992V22.4644H468.79V16.0752ZM457.921 16.0752H461.003V22.4644H457.921V16.0752ZM518.759 16.0752H521.841V22.4644H518.759V16.0752ZM523.788 16.0752H526.87V22.4644H523.788V16.0752ZM588.682 16.0752H591.764V22.4644H588.682V16.0752Z" fill="#75835D"/>
</svg>
